<mxfile host="65bd71144e">
    <diagram id="hwrrWwQjLfEWv2htVAja" name="第 1 页">
        <mxGraphModel dx="1752" dy="2189" grid="1" gridSize="10" guides="1" tooltips="1" connect="1" arrows="1" fold="1" page="1" pageScale="1" pageWidth="827" pageHeight="1169" math="0" shadow="0">
            <root>
                <mxCell id="0"/>
                <mxCell id="1" parent="0"/>
                <mxCell id="2" value="" style="shape=image;verticalLabelPosition=bottom;labelBackgroundColor=default;verticalAlign=top;aspect=fixed;imageAspect=0;image=data:image/png,iVBORw0KGgoAAAANSUhEUgAAAqgAAAOECAYAAABtocOlAAAAAXNSR0IArs4c6QAAAARnQU1BAACxjwv8YQUAAAAJcEhZcwAADsMAAA7DAcdvqGQAAK83SURBVHhe7f3/72XFned58hfsjveHRbN2z7oR7aK73KZw09CFEWCy1tVOwODKgUxcY5cNmBwgSXDPIOROZ5F47AFMOTdl42mw8GbOUpCycnDhbI/TVu4qW3hUrGirLCSPrfJaHkve0vwwWln2D/tr7Ik4EedGxHnHl3Puufdz7r3PHx7Kzz3xjjhxzv32yjj3fj6XXfX+axUAAAAwFwRUAAAAzMpl//jKq9R/+u7/s/o//qf/aGlTjgUAAIDddNkf/LM/Uv/ovf9EvfsfXbG0KcfCqh1V1/7X/zd1w3/+CaFtpv6L/4P69snLjK/9F0I7AADYCpf98z+6Xv3jK/+Z+s/+8R8sbcqx5usO9c9PfF19+L+6T2jbJH+pbvzS/6j2ffqw0DZDd/2f1PdfuUydfUhoAwAAW+Wya/7ljeqfXHW1+sf/5A+XNuVY83W3uuar/3f1r596VGjbJM+rW7/2/1L7H/43Qtv8/Jtn/3fqf/72e9S/EdoAAMB2uexf/vEt6g/+8IPqyj/4wNKmHGu+/lz9y3/3urrj2f9aaNskL6g/ffln6s5/82+Ftvk59rX/vfr//I//mTomtAEAgO1y2fU37lP/9J9fq/7JP71maVOO1bn9/6r+9Nz31cedk/+2V/OHX3h90S7UXHPSbnvwZa/udXX97eE4/+Sf/lt1sz+O5saK5xG5+cF4rIz7/yf153/9P6ub90fb9/979Wd//Wv1Z08+ZW5f99yv1Z8/97Ktb342hH7/9GW1v2tP1djxgrrFvjrBvhp6/377Hjnx0n+ifvv/fK86IbQBAIDtctkf3/R/Uf/sA9epP/hnH1zalGMZD/336sAbF9VHn7ov2PbhhxY1H/z6xabmv1cfdO3/7Lj6cNPnwCsvqPcHNf62+9QfvxLWdNu+ftzeTqmtyzmjbv/2/6o+9dUzwfarj/2/1ae+/bb6V/b2v/pqU6PrvvUDdbXZ9t+oD3/Lv924/Qfq7qbm7mP/TTTO/6puf9DWSP3sHPr9Fvvv+kXz3Atf+tZ/ov5/P/rH6ktCGwAA2C6X3XDzn6o/vPp69Qd/+C+WNuVYf/CHJ9St//6Suvu/OyG0WXf9O3VbU3PrI9H2R/5a3f3vv69uuKu9/S/+u2ac1/6d+udezT//4vebmr9W/6Lb1u7vti8+0NXIHlA3vFaYV4U/Ov6/qL/4H/5O/XG37b9Vt57539RfnHqlq/njU83tM/8P9UddTb+fVNMb67/8u6bP/6Ju/Zhf84r62P/wv6mDx//b4PbH/ku/pmH6+vMs+/z+h9QvH/6vZPf8a7FP3gfU//TWZer/e+YDQhsAANg2l33oln+t3v9H/0r8JalDTTnWVR9/Sd3+/TfVvkeFNufRs+qe759V1/bavqj2eX2vffFNdc+3X1If8Go+8KUf9vq225pa7cUvdttDD6oPfTvXXunOS+rQ3/xW3fmwf/s3at+di5obvvZb9ZlXLqlrXJ/GNU/9Rn3mb95RN5jbz6p9r/xWHXrq2a49qLN9/Z8XNa+pO5v9d33tfD4jCue1Plert96+TKmfv0u95c4TAADYegRUb1vHjGuDatRvsoDaMAH0a6+Zn6UQuRcBtQvMs2KD6oWrhDYAALBt5htQbci8/UsPCm1WKsSagPlD9aGPt7cHB1QnGqc1XUC96uF3bNhsg2YcDssBVa5xwTUIv14fwwbSRbiNAusSjt32iPr1kSdkBz8q9il57pV3KfX2Feo5oQ0AAGyXGQfUxSX3IIA2oXFx24bFIGi2wdYPkGMDaqrGjFcKt1XaUHjnUzosRgGyURNQ25AbBsu2xrssH4dR73J+v988V1EJqAAA7I5ZB1TDv9weBU+nDYwL8aprVUC1q7H+OOkQ6oLxQvajCBkuFEorl1UBVet9frQfdl2QXbTLHw9w8wnYldi9REAFAGB3zD+gAg0CKgAAu4OAis3w/LuV+vll6pfPC20AAGCrEFCxMcwqahNSCaoAAGw3AioAAABmhYAKAACAWSGgAgAAYFYIqAAAAJiVWQZUgi4AAMDuIqACAABgVgioAAAAmBUCKgAAAGaFgLoFXv7rY+of/sMx9dZfNrf/8gHz8z/89W2LmvvuUX/v2r1+49ym3tLj/4cH1MvN7WDfvVoAAIDhdiegHnhevX7xovrm40Lbhjv+9cebkPi4+t59zW0bRpcJqO140Ridm9X3vte0fe8eddyrJaACAICpEFC3gBRQ//7rNy9qagNq1/eedpW0OqDaffdqAQAAhiOgboEwJLaX4IcHVN0vHKMmoLYfKSCgAgCA6Wx9QP3YM99RF5tgKvuWeszUPaG+qW+//ESv/2MvN9tff159TN9+/Fu2j623Xn/moNzPq0kF4/1Pn1fnzl9Sp58+JLZPwgRUHSJtuNThMw6xgVxABQAAWC1WUK02yLrA6rRBtOtjAmoUOO22xbgH1TOvNzV+2M3se30BtQ2l3Sqq/TKVvKpKQAUAAHuHgBq1+6uhvdDaC6NaFEi7VVa/xq6oCiu0ayFe4hc+ChC1EVABAMBeIKB6gsv5NngGl+9N+PyOeubAok/crw21zW1JN/aaEVABAMAGIaD6/ABq6qOV0FxAtauj8kcF9hgBFQAAbBACamCxaqqDZu/LT2JAjVZaEyF2TxFQAQDABtmdgJr5pr6vXQHVl+SFkCmEz/bb+v6Kqf1MauUq6jq/JLX2gHrXSXW6ObZz58+ow1I7AACAYIcCasOuoi4+FyqFyEyQNQHV798QP1fqQmpIWr2dU0B1f7a0b+zvOX1SnTQBdcXHBwAAtspuBdQq0a+W8s3x8v3MuQB+8ojcDgAAECOgBuzKZ+pjAATUgewK6qsn1X6xHQAAoI+AqvmX/nOfUSWgVjv8Qntp/9wLT4rtAAAAKQRUAAAAzAoBFQAAALNCQAUAAMCsEFABAAAwKwRUAAAAzAoBFQAAALNCQAUAAMCsEFCdQb/j1P45VLE+/jOn9b831fxdf/FPp24e92dTzZ9X/csH2j+Z6v9tf/HPr47kxnf8/XTaP+26qHtAvdyrqWTn/g/fu0cdf//N6nvf0+ON/XOwAAAgRkB1JguonoG/2H+bAurxrz++CG0u0K0qoHZsWBQD6kI7tyUCqgu7dj9tGCegAgAwFQKqs4q/EkVADQLq33/95kXN1gXUZcYDAAA+AqpDQJ1UEFBtoNvWgLr8eAAAwLdTAdUEwNRnQ02Y/JZ6rLt83/rm415N1NbW++2RUkA17f54DT+gdnOKPtf68hPRWIXPvR54Xr1utpXGae1/+rz5O/qnnz4ktk/CBFQdYN1nOFtBiHWqPmOqTRFQw/lo04ZoAABQsiMB1QUzP1A2216Ow2AY7j72zHeC2762bXxAlcburaB6Afb1Zw6220zY9INzG5q79q6fN7bto8fp+tmxwwDeWl9AjQKgDaJ+IOyHyVwIXTaghiujhp2TGJwBAMBK7ERAzQXNjhQme2FwYbmAKoTKRiqgSqu4rq+ZR+9jAW0gT4daTZ7D2oiX+OOPArS3eyuYJjRKAXO5gJrabj5jar6xH24HAACrsRMBteqznesMqGbc/nY5oEoBdyH82ELEXcLf1IDqrbL2Sd+aXy6gmiAq9U0GYgAAsAoEVGeTA2rp2DY8oPZWUJMIqAAAbIMdusQ/IkyuNKDG49rPyQ4MqFXz2NSA2rtdwiV+AAC2wY58SaoNY+FKo/QlqTUF1F4YtbfjOVYEVPnYIgMD6jq/JJUPqC401q6iLvklKfeRAr+/8MWtIdy5PPfCk2I7AADo25GAqnkh0IiCX01AtbcXYywsgp4NjJLg1zqFdXofJvQODqiatE+v3wYHVM2F1IAXIsV2w/ucqgufgnB/7RwW7dJnXQc4cqYNqOfPq+N3Ce0AAKBnhwIqsBcOqeOv6oB6Rh0W2wEAQIyACqySXUFd6Wo0AABbhoAKrMST6qS5tH9JnTwitQMAgBQCKgAAAGaFgAoAAIBZIaACAABgVgioAAAAmJVZBlQAAADsLgIqAAAAZoWACgAAgFkhoAIAAGBWZh1Qz124TKmfa+9W54R2AAAAbJ+NWEE1QfXtK9RzQhsAAAC2y2Zc4n/4CvW7n79LvfWw0AYAAICtQkAFAADArGxNQP3YM99RFy9eVK8/c1BsBwAAwGYgoAIAAGBWNiOgvv9q9dbblyl14SqhDQAAANtkQwJq67lX3mV+7dTvXrlabAcAAMDm25CAepX6JcEUAABgJ2zNZ1ABAACwHbbuS1IXX35CbAcAAMBm2J4V1Me/1QbUi99Sj0ntAAAA2AhbdIn/oHrmdQIqAADAptuIgNp+e//d6pzQ1rErqPweVAAAgM0264B67sJl5tdKqdzq6YHn1evm0v5F9c3HhXYAAABslM24xA8AAICdQUAFAADArBBQAQAAMCsEVAAAAMwKARUAAACzQkAFAADArBBQAQAAMCsEVAAAAMzKhgTUB9WHvv2muuf7C/selermZDHn+c8Vyzpw9vPqxQt3q5uEttmq+hPC6/PAI59S73zzQfXOF/5EbF+fq9Vbb1+mfvm81DZWO6b5wyNvX6GeE2sAAM5GBNRrX2yC3rdfUh8Q2tbPBs8Xvyi0+QioNaYIdjd946h68UfNOL6z+8XaVdm8gHqV+mUTln73ytVC29T+RH23CZ7fPSS1LcwnoDaef7cJk1OFVPNX8QimAFBtAwLqF9W+WYW82oCKGpMFVH+M++9Wz605pG5WQLWreReuEtpW4Nbb1d9+81PqzK1C24w998q7mpD6bnVOaBum/c/AtCuyALDd5h9QP/6Sup2AurVWElAb6w6MmxRQpwteddqV0XvUl4W2eZsqyBNQAWCoDQ+ocliMPxJgbuuaR896n2P9ofrQxxd9OkHNm+r2Lz3Ybrfz8Nt8i/ktLu23EvtpfOBLP/TqGtJx1M67hltZTFwGXwS9/eqYV/fcN24O6nrjiMEsHEM7diLd5uvt78T9YU1y3ottcmC8WT10wRvnR0fVQ/d77ea49LaoTlqJjeekxfsrnqf2POjzEn5M4X51IKizx9O1++eyVX3f2dBVvLR/6J72crvzV7erB7z2L3/BXoo3q6Ouzl8lbS/rB2P4usv4YV3uYwBmn17t3z5yo9d+ozrzV3ZbMHdh5TaYszSWx1zqX/ZzugRUABhqpgE1DnmRLnwOCKhSv+hzrS4w+mH4A186GwVCeZ8iEyzlQNnO6ay6ttvWfpRhzLyr2EAVBJZmmx90/JDUbTf9vCAX3270w6AOeGHIaseOAmGjtPLY9vPHsuHRC42LcGZrpGO1wS0+/mBOXqAMjz8MhNKx9I6j6jx5YbLbHh9f/3jdPAffd5r5YlQ+LLVBUAibXai0YfAL9wSX7k2/KMi62tTnSr/cjNGurObq7P79sW0IXQRa+znXZrzFaq0wZq9fyRThkoAKAEPtzgqqGEa9gGj3062YJk0QUFPHFNVXzbuKDULSSqBHDJFBGGrDUm9Vrlt59LbFhFCl5QPqYoUx2G6C1yK0+uGs1Z9LL8Qa0fGIc4yDrRB0G+Fx1J4n+X4JxoqONaiJQ3r2vrPMimDm8r4JcP1Vx/AyvVv1DOvkS/k2OBYDYTqgVgXfblU03H+30mtvD/+4wQSX+UvnHADQQ0B12zKrnaEJAqrZLoXM8AthkwXURDiMtSGnH4YWbKBKCMa3K4/ZmkY2oNp5S+P4YSwIn66PFPp6Y1iuVjxPUSA1Nf0AHB5H7XmSw66vH7493nkr33et0udP40DnSAE1viwuhr/qL0ilgmxquxxQwzkJ8/Qv7/dCr2SJgGp/E8DavowGAFuEgOq2EVCrA2ouUBk2nAZ1iTnUBNSqeffCWhgis/txJg6oxfNUHVDLwbO2Lr+aJwdPLQiuiVVWKdxWr1gmxkxuj4JrOhwnVm/9oCoE8oXKz+zmTPI5VgDYLQRUty27H98EAXWPLvGXAlM55AifhxSI44wJqEPmHYzR9utfAi8EuOqAGtfY89LNoe48VR2f9DlSQXVAzX4GNRFQo6A3JAzKl+f7kkG26iMHif0kw63H1OQCNJ9BBYC9sOEBNRFGm/rBAbXR9g0DZf9LUq6uIiQmV2VtyA3GsF+S8oJv7bxrtAEmClZN+PFvV4UcaXU0FocqG+p6+2+0+0wHMHHeEVMThVwTfINxbWhNhuFGTUBNhdF47JrzVBNQu/Hz90vVfWfkL1mboOcHNrfS6K0y9ldK22ArrUTWrqCGdc14Xdjsj93W+mFY/vyqqSuE42KAnmT1k4AKAENtfEDtgp2lv+RkQtyIgLrYHo7nt7dcwFxYzC+cT0Ba6fXa431NGVANG5o60QpfdciJx9HEgOjooNiGMSlohrX9wOZCaiBeHY2Dpw2b4Vg2pAb6QTofUBfb3Bi6XpxD8TzVBFTNC8Eef571AdV9DjUVumzY06HQCldFbWCMSB8LaMXjJVY0/UvucU3QpsWBt51TOM9+aG3Dd0QI1QsTfEHKIKACwFDzD6gAJrZE8Epcyt9G/CUpANg7BFRgF9nPog4OqTWf69wG9hv404RK+x8C/hY/AFQjoAK7yoTUYZ+vrPlc5+ZrA+W0K57tKqr5tVMEVQAoIqACAABgVgioAAAAmBUCKgAAAGaFgAoAAIBZmWVAJegCAADsLgIqAAAAZoWACgAAgFkhoAIAAGBWCKhb5VH12md/pn7xeOOzZ9VhsQZpz6p9r/xWfeZvnN+ofXdKdZif19Sd3f2mvaNuEOswX+4+3MHn3fVn1U/063bjJ3c8KtfsiP1Pn1fnzl9S5154UmzH7iCg7qVHz6p7vv9D9aGPC20jfOXeLQ2mD78zwZtWHGCcxLiT7HPNNnHO2p2X1KHmvrgz+Retht131zz1m6ZtswLqDV9rjueVS+oaoa09nvjYFw499WyvzxRyc1qNzQyok54nG1R/sIV/SvjwC03ofPWk2i+0+QiocAioe2nSgPpV9YMtfWGbMqBWv5kTUNenMqDW3nfbFlAD5lyt5z5ef0DdTFOfJ7PQcO9XxbZNVhtQAYeAupcIqHUIqHUIqAYBdRoE1DoE1DoEVAy1UwH12hffbAKhIwXDL6p9XbtQ8/GX1O1m24PqQ9/26l78ojeGFrVr335JfcC2h/OIeHXDTBVQ489hRm/0JgTpbVHd117zxtBqPs8Z14QhxLzwe22B+A3Bhpxk+9QB1bR7+/OP352jrkafr3b//TEL56kLJOnzPeg8TaZ/34n7ypyn/KVr/3E3bUCNz5cfjE3f5jhucHPTx9Q9tqIxS4859zjo7vvW4jjC7THxeEsBNTunxX0W/GfA9TG1I+a0tHifwn3XHXf6eeD0H1fC+Srdd3ZO+jyF47m5re48zSqgHjnTXm534oBp2s+ow+9/Up306k4/fcjWhNtjizrv0r7Q5ovr4o8CmCCstwVzP6+O3xWOI85N/FjBQfXM6xfVxYvfUc8ciNuwSjsSUF1gPKuu9be96IVBEz7fVLd/6UHbfq36wJd+aELjvkfDmmCbWQX1bjdMAK0JmrNbQbUvusGLdbOtF76iF2H7Yr9402vHCV6kTb/wjeKGr0VvHHbs3kqa0LfU3l/VEOaUk9lnPwDZN013nuxxLN7wf6MOvaLHiupqzpP3RtqdFzv+4PM0oZpVo+J5cnqPn9iw+66/X0fYf7TvLozoGtOm7zs9VjQH4Vz3zol7HHh17fj9+6jmfBp2TuJ9XDOnLqS682NvC/uuntOEkvdd7fOg5jlQdZ7a+9vcf912+fE79XmaS0Btg6Af7A6p46/qIKcDqd3mhcCTR8Jt3W2rfgW1DY5SQDVj+Pt3IdMbt63xt9l5B/u226o+50pA3Ss7EVDboJkPgnKotMHWrZDagOqHUbfqugi2UZ+cKQPqrRfULx6/oL4itVUyL7TiG7tHelOI3rzNm0zvBbt9cc+HjEQQyb7pJMbtvZF7bziBxPEm99mO0wtTpt6OFZwju1/zpha+wVWdpyhAtcacpynJb9ShivPkiMfoG3bfJUOOtO+Gedz794k7h3Ze7Xn2z3nlY066PxLHWh1y4n10ap8H2uIxmTxXjamDV43kfMTz1n8e5I6nVXueFufIr5POyeTnybyW/1i9dr3QVnLLp9Wvjzwhu++AOib1ESVC4l0n1Wk/fIphVA5/SwfUeN+OmcMiSEv7acN2P9imVmkxDzsRUMsrmm2o9FdPHRNuXd+qgNqwq6rFS/ZTBFTzYjbF/7hrQkejIgSZF2z94i7xx7dvOnFN780ju89UeGkt3tD6b2ZZqX0m5tyy9UFff7/hOa46T5VvzEbFfTMZsy87V+nNueY8RbWlgFp736VCSrtdmk/DHkPQN5iXP4f2Z3GcRncc0v2RONbqkGP6S/dx5Zwc7/5JnffJg1eFZQNqeB6WOU/S2LLVnKf2itiyiw6jmTAoXRZvw2cX7KJw6EghcemAavblh0ynrXfBtS6gRh8VqFpJxboRUI2JA6rjfSQg/HiBNfkK6sj/dRsTB9TSC7Z7gwz2l3hTyO6z9o2k/g3HSO0zETACQV9/v0JArTxP5TfmRsV9Mzkv6ATBouY8OcXaYfddPqAK4cczJKAW5yPdH4ljnSqg1p6jdm7t/Zbqs5kB1bHPNXuMi36156n+fE59ng7f8eO9C6bOFAF16hXUiQNqx4xrg2rV/LAuO3SJXwiInuku8QvEfo2ZfQa16oW2IgTVBAF5nMSbQnaflcF61Bv4yCAQ9PXrw7lWnachb8wV983K9OY54HwnQtvCsPsueV4rzk9dQF3iP3OJY10+oNY+Dxp2DuZYMudkswOqE5+X6V8vpj5PX1nmM6h7cok/DqhRiLWWDqiTXuIXJMI29s6OfEnKfjs/CKBN+PS/JGUvy/tBs/fZ1bEBNRVE7XjZvtUm+JKUfRMIX7ybF2r/dlUIal/csy/avTcc20d6U/DfUP3tjplT6c2k/g3HyBxn+yaaCVRBX3+/8ZvjmPOkJY6ldJ6s7tLWlJe1hPNVPE8dex6SoWHYfZcMOe78Z/5TUBdQm9s1jznpMSTen26/pedVw/RP1NXMyZ0D7zFnApZwTmrnZAKBFChGSN53Q54HAaGm6jzVP+aq77tKSwXUCbX3qx/Y7GdL/fAnhLq2Xz8Mtq87NQEwEVDd/oOx21r/tWxsQE3XuC9JXVTffDxuwyrtSEDV7GqoDqpGOjAuaqJV16qAasNwILNKaoNxJ/tRhJypfs1U+8KsX8Bb0ZuF9KYrisfRwn7tC/ui/c6H2zdP8U3Bvql04lAXt/dqpPlo/pxSNY0oPMVzD2qCc+S/0UmrN4XzNPSNuXSetO6S1tjVgsKcPdnz5LPHuajzH3ep+6V/nvo18XlyITXkzm8QkIJzL5zz0mMueBxY4v3ZaoPignj/mv7yuTayc3LnMe7vtveDYc2cuv/wlFaoUmruO/G89e+TeL7BGL7SfSfd3xlV912luQRUbXHfWvF/arvXEk9mldT9Z8bxQ2jcthA+rnJjdO2lgGpXY/1xco/fx15uA+rFl58Q27EaOxRQt91UARXbT1qJAMayq1iZYIJ6cwqoRbtyWfzA8+p1AuraEVC3xqPqtc82L2zb+Lf4MS276jHFJVnArbL1PhuIEdqFhp/c8ajQNkM7ElDbFVR+D+q6EVC3SvviZn7tFEEVPXalizCBKXSXSXdgBW3Vrj+rfuJeuzdl9VTb8oD6sWe+017av/gt9ZjQjtUioAIAAGBWCKgAAACYFQIqAAAAZoWACgAAgFkhoAIAZu3ZZ5+tIvUFsJkIqACAWdPh88oPXp1FQAW2CwEVADBrBFRg9xBQAQCzRkAFds/uBdTJ/vb9Grk5b8JcN9rN6qELn1cv/sg5qh66X6rbEuaXg/9YvXa90LbXDt2j3vnmp9QZ/nTvOOb8Paje+avb1QNS+xrpP9257F9GigPqs39uf6n9499XzxJQga20WwH14y+p25ugt+9RoW0vmOD5Q/WhjwttPgJq2f13q+eaUHnshNBm7FfHuuBZEUJP3J9um6tBc573n1R84JFPNQHrHvVloW1rmVA50THPKKC6v5K0zGPND6gP3PUfg2DqEFCB7bJTAfUDX/rhvEJebUBFWWVAfe4bNwttgq0OqI+q1z477z+p+OUvzCRcrZEJ5dt6zLdeaELl+NX6RUB9WL364M/U3931cBBOCajA9tmpgHrtizNbhSSgToeAWj3nw3f8uAkLF9RXhLZ5uFGd+asmoH7hT4S2bbX9x6wv9f/is2fVYaGthIAK7B4CqiOFxfgjAea2rnlQfejbzVj6srv24hcXfaK+Uo2Zh9/m8+fnLu070n6ML6p9fp14HJXzzjEB6H51wPyrL483P3eXzuNgFF9Sj9rFQBmHyPYzofr2Td846o2l99v2CbfHFnWTB9TuHFhn90dtteep8LlXc570tqjO29+Bs9722IW71U1uLKNdPU1ebr31dvW333xQffdQuL295L74TKhZ4dRhytaby8lCvy54DazR/vaRG4Ox2jks2lce5qJjk1Y3zXnwasI5t8dltrlL7ob32dpge194rkrnKWyPz59fk51T50/Ud7t2qaZtN3MsjtWwl/p/ILUVEFCB3bP9ATUOeZEufFYHVKlf9LlWu+32Lz0YbAtqurponyIbLDNB2N+X+SiDP6faeZe4wGVCjw5cR9VzF7zw5EKTDZ9+GHRBsgukAwKq2WcXyGzQ8wOhtsYV1PZY/PAbHX/teZLmFO/XHldw7uz4vWPNzLlTDAlt6IjDTRvE3Ocjbcj5wj1NgItCqx/iXMDzgmQcdKWadpsfcmzwCgKiPM+ptMcbBi0990VgtOHNn5MNaXHNd5vzFJ+7Xri256Ef3q3keVr0eeCRe9L3RadyTr1jcfed9xlZez999wv+RxMSx2cU/nOUQUAFdg8rqI4UFhMBNQx17erlIiDa1cya1ckJAqp8TFF91bwrBMHID4ph8DIrer2VOznEVgXULtC1xPErA6oJjgE/aHqSYa8dRw6HdqzK82SCbuI8deeg6jxZNQHVfBYwd3lfChjxNhvOhABXDip+sEzUmHC0CELhuH5NJtAtw4wdHltMDoDR8bhQ6Ye6hulbOOZQ7jzJ80wG1Ko52RAbnFs7B39Mex+E+0nd762xl/m7gHrjq+rvHv+P6tUbw3BKQAW2DwHVmSqgijUJSwfUdrsUMoMvhE0aUF0A8kOSH7yigOUJAtkeBVRpXqJU2LP76QddzdZXnafCpXl3zBMH1JrPn/bCjV0pWwQhG1CDECKFMyk8eQHVhqU4ZIb7t+Pq/QXyAXK8fMBqSQFOk85BvMrrB3S3LRHCncR56q1odtp5iKvLNXNywTMWnZN2/8Puh9EB9UuXmmDa9H3wVfVAFEwJqMB2IqA6BNQyAmrFfhpDAmpvBTUycUAtr6A2otW83oqfuHIXhpxkePKDa7SfVjtOHPJWslIqkgNkQDx+re3r5iqeA/F4CqG45jz5MuesZk7J1ddIbZ3PBNQRvz0iXEH9mbrwEQIqsO0IqM5UAXVI8Fs6oO7FJf6xwSsKm5saUGvGqTxP/c+yCqYOqDVfVPFDpPk5DDQ1IScVUINQIwSvtp8XEDNhazXGB9T4mMUAJ/Yt7LPmPPkS89Nq5lQXPGtWmmN8BhVAPQKqkwij0peNSkGv9yUlrQmjYb+GHa8cEtMBtQ250v694LvmgNrWhQGqDWN+eIpDVns77DcgoLr+UW3c3gt1KZmw1x5LJgzXnic359wq6pCAamvzx1jzO1DdSqD+tx900iHHC1E2WPoByvTzxzN9olD7V5+KAqkNQsXAZN11Up0+f0mdO39m1K8z0tp5hoHwy1/wb/dXL11g7M07CnDtMcbHUrOCGp+ne9R3mz7lgKrHdnOvnFO0P1lFkI/xLX4AAxBQPS5Yts6qa22IGxpQDRscO1K4lOq8+YXz8ckrvYt2Pfd++9oCqmbDUveZSmml0AbZlh63HWcRsIYE1EZ2nzYM9vRDc7+mEc3BhVSxZsh5EvfpzWlIQNWCc9oQzlP7OdTcL023QUYMKW1bHEzSobUdxxBCZhsG/XYXjv06GwgjcoB6Up00AfWSOv30IaG9xuL4k/uyAXxREwbaRcj3t8kB0YjHi85V3XlywvO1qKmfkwvcAX9OQQiuw+9BBTDETgVUANr8/5LUMvY/fd4E1JNH5HbsAf6SFICBCKjALrKXW7cvpNoV1FdPqv1iO9bOPtam+lv8z/5587jlb/EDW4+ACuwqExzGr2rNzeEX2kv75154UmzH3tCX9pcJp5ofUN0q6i/0f7C8oEpABbYLARUAMGthQJURUIHtQkAFAMwaARXYPQRUAMCs6fBZQ+oLYDOZgPrHN+1X/2oCU4015Zz+9f67mvFuE9sAAAAwPwTUDXL4sePidl9NjWRsv023q8cNAMCcEVA3yK4GVD23WlJ/R6pPkfoDAID1IKBuCBeaSuFJanehy5fa7sRjbKtdOlYAADYFAXVpn1CHmpBz6GNSm1NTk+cHqThU5dokUs3QMTaVPrYSqR8AAFgfAuqSbrnnCXX48P3qFqHNqanJkUKTvy31s8S1639rLPq2ITtul0P3n6k7D/t1T6g7P7JoN+ej19eN/6j6027b6ul5SNsBAMDeIaAupQ1if3HPnwltTk1NWi5AuTa/phS4Uu3lMYRV4I/cr/6i2Xb4Lz7Rq/OPtw2ki5DqAmrQ72OPttu8gNreHqcbd8JxAADAehBQl2FCVWHFr6YmwQWkODS57XFd/HNM6pfi17USH1OwwdJt/9O/aPoLq8X+dv3zX9xzfzPe4rz86V80AfZjOvDmz1U8N3mudZbpCwAAVoeAugQTuoLVw76ampJSKPNvp0KX3u6T2uNtoURAdZfmzTH2V087XlBvA+qfmX/NeHolVodXsyIbfhwgFs+zPG/ZuHMAAADWgYA6lr283Q9snpqaCqVQ5t+uCVmuRv+bEvdJB1T7edMuYCaO1wTUNny6gGq2NcFWX/I3t9cQUP1jjEn1AABg/QioI9V88ammpkYcnnK3a4KWVFPut2RA7cKn/5lcPeaj6pC+vK9D6RoCakz3X3YMAAAwLQLqKJlL2Z2amjouQMX/xu1Sm7Rdqkn1WygEVH2Jv2oFNfzSWBDic/0b4+Yt0/2mHA8AAEyHgDqG93lKsV2rqankh6ZSqMoFLN3m2t3POWH/VED1g3g6lLff3NfnIwyoodQ+Wv051W9z22tJ/QEAwHoQUEdY15ejnFRgkraXwtWQsUJyeGyD5+KyvDnu3scavFXWbAhNt015DnzL9gcAANMjoA5V8TnJqpoBpgpnrk3/G9fl+rX64bENp9FqqL1M729brJ7q28MDam5uUtuQev92rh8AAFgfAupAwWcmE2pqhtLhSeK3+//GpO1ujJxFfRsew/bERxhsSJXrygHVD7e6f1jTt9jPQqou/jmuTfUFAADrQ0AdpB+g+mpqVqMmmG2SKectjbVt5wsAgG1BQB1izV+OAgAA2EUEVAAAAMwKARUAAACzQkAFAADArBBQAQAAMCsEVAAAAMyKCajv/6N/pa56/7VLm2qsKeekA+oHPniD2AYAAID5IaACAABgVgioAAAAmBUCKgAAAGaFgIphHn5HfeZvfrvwtdfkOqzVTd84ql780ec7z33jZrFuO5xSV5xS6j1HTwlte+eap37TPCfeUTcIbdupvR/e+wmpDQCWQ0DdCg+qD337TXXPi18U2lblWbXvFQJq1v13q+easHjshNBW7Wb10IVF8PTJ4+5Xx5q2jQqoA8/TlSeUuvzU2+p9QtteWnlAPXJGnTt/Xh2/S2jbK5/4lbr8NCEVwPQIqFuBgDpLUwbUs/uFNsl2B9T3Hf19E4h+pa4U2vbaTgbUxpzvEwCbi4C6FQios0RArVN7nva9rd4z49W6XQ2o7lL/5SfeENoAYBwC6hgff0nd/v0mEDq9YGgDo1ez79F+++1felB94Es/9OrOqmuDcRqPnvXao7HieUTCfVaq/ozp/ALqgbP+JfCj6qH7/fY2uOkQFH5e8351wBujP44cnOLPfL544W51U6otEO8vvoQfz3vigGrDYLc/b96Lc9T+q9v1sbvzEY+ZP0/tvHWf1Pkedp7sSl3i0v4NX2sei69cUtdE29vQ+Bu1787m9p2X1CHzs33sZh7jbb98TTueV2PEATXal5tLUJN3+IVLTTBNePWk2q/rTHi9pE4eifs/qU42208/fai9berOqMN2uxuna/fE++2P7TGX+n+vrtgntGmPf0tdvHhRXXz5CbkdACIE1KFsYNTh0t+2CINfVPt0QPRDa6+PF2C7OqGfDaDloDnNCmp/BSgXQucUUF3I80NNs+1sP3yZ8NOFsjj8CWFQWt07cX8U1uzYcYgsrgwKYbIZOwypwpyyhDGd3tg2ZHbnw52jtka3PXfhqBcy3fmtOU+2Ro/X1Y09T1phlc7+x+rOh/3t0WPUC5RdndDPhN3gefCaulP38wOw0K///Gn7HXrq2a6m7Tc8pBomXKZWUA+p4682QfKFJ8Ptpo8OpP7tKHDabYsAKox110l1OhtS31Dvza1uE1ABDERAHUQIkZF2RbS/Enrti02/b7+kPmBuy4EyrGmYYPtD9aGPL2pkUwTU9s00fINvmDdU6bLlkgH1lk+rXx95QnbfAXVM6pPQhqd45TEmh6MgoJkA11+5MzWFgBgGPasQvMy84z422C0Cphf0AqnjTQXUeFzLzNGNFZ4jc0z2fAQBteo8CSHW1Qw8T61CAJIejzaQdo/p+LYRhUixphEES/mxHwdUc7u3qtv2DUJrLRMk05f49z99PmoXgmYvjAp1psYLtZZZUY0DcIfL/ACmRUAdomJF04RMKSiasOmCa2VA9Vdas/udIKCKlysdacVnyYA6ITH09KSC20L2knMwfiI0DgxebQBMKAS9tNRx2vCZ0M4x7OufVz+g1p2niQNqxedPiwGxJqAm/0Pm/wdO/s9cvP92JTZhzPPGBMfcZ1Cjy/lm1TOqT4xhwqf9uEAbdJvbEveRgh4CKoBpEVCHWHtAjdpsUA0+XmBMF1B7K0dJ2xpQ+yuDIRdOw7oxwatu3tMG1NzxDwuoledpbSuomh8chZXKvQiowudiRysGVCFoipf8EwHV1rYBtb+CmtcG1Ln9bloAm4uAOkh7ib8fEBcmvcQvkGsmCKjxG3XRkgF18kv8pcBUEdCEz2j2yeOMCV7LBL201HHWjFMXUOvO09QBtW6FzoRC/Zg0YTQKmjUBNfUfteASv/xciT+7GgfWpVUE1MWqqb5sL9SKY7SX+MMvUhX201PzHwgAqEdAHch96z5YRfW/JOW+We+HRfslqUWfsQE1HUTbFVbhtwAM0L6hCm/OovmsoLpgFQafJiAJX5LKBlQXqrKhsR+8TOjq7V+z80qGQmnesZpg6cscpwmWuXMQ9k0G1JHnSRMDavE8tap+36ZdAd2nH8vxY7MmoLrHdRAs2xp/vDiMLi7nC/2qVlEX36pPfhHJflFJ+sb9gv08aepyvBA+22/r+yumbowBq6i13+J//Xn1MakdACIE1DFs4Oz0AqP9MlUn/qJTXUB1YTgghNOWHdOrzX0UIcWF1ID3xiy2GyO/mTwZF5qceIUvE9wC8TitYHXPrvh17U2wMgFOCppxbS/U2XAW8Ocuz0fz59SF5J5ofzakBrp51wZUrXSehgTURvE8NeznUPOXkV3AFB6PVQG1tQicrf6VBbcfr138eIANqQFhbjZ8ZgOqZgKmDaDZEJoYJ+6fGsMPuh55bhWr2weeV6/rgHrxO+qZA0I7AEQIqAA2Bn+1qIIJoYnVT9M29PJ9Xu198tjLBFQA9QioADaIXa0jpMpKv6906oBa+7f43QoqvwcVQCUCKoANwzfGY/6vhip/RGCqgNreD/lw+oT6prm0f1G9/sxBoR0AZARUAAAAzAoBFQAAALNCQAUAAMCsEFABAAAwKwRUAAAAzAoBdUMcfuz4oO2bZOpjm8M52Yb7JWVO95fuWyL1yxnTx0n1XWZMbdn+U4jn4N8eO785HJdvTvOZai5THtMyY6X6jh1zyuPCPBFQN8TUT25H908ZWi+Rxoil6mr7x8b2m9JUc9DjlEj9HKk+Rxojlqqr7R8b208r9V33nFL9ljlGbdn+U4jnULpdY2yfWlJ/R6pPkfr7pD4xqV/OmD4pU421zDipvmPHnPL8YJ4IqBtimSe3rpG4Nr9O+nmMXH/dNpY0Xqy2bpWmmkM8Tun2WLlxdNtY0nix2jpJqW9N+xhDxiq1xaS6FKn/qsT7K932ufkOIY2zamP3W+qXa3fHO4Y0nmRIbc7QfY4ljRerrcPmIqAu7TZ1oHmiHPiw1ObU1OSlnsBDn6RxfWqsoeP6lp1TaXuJ7pcj9Zlaaj/xXFJ1Ttxeuj3G0DFS9WPnovvlSH0cqT4m9XNK7RKpj78tbs+1SUrj57atyqr2v85jkOj9l0j9YqW62nGcofWam+8Y0niSIbWxVN+xY7q5p0h9sFkIqEv64B2fU4cfOKg+KLQ5NTUl/hMu/nnIkzGudf0lfl2tMf1SfdY5hyno/ab4NXEf/3bMHyNF6ldrTP9Un7FzWeYYSn1z7WP2K/XJbaut9w3dxzrk9q//jcW1KUNq12HsfPxjT5H6pQytj5X617QPJY3jS9XU9JWM7YfNQUBdyi3qIw8cV5+84xahzampyYufiP5t93Ptk7VmrPjnGrp+aJ9V2et5xPv3b+faJKX6Uv8U3W9s36ktM49S39qx3flIkfqk5OprxvL3WyL1n5q/L3/f/vYaUt+UZfvHVjGOL9emldp9/v4kUp9Yqa52HN/QOazaXOaB1SGgLuPDDzZPkgfVjVKbU1NTED8R/dupn1OmHMs3pn4IaQxHqpdIfVch3pd/O9cmKdWX+qcM7afrh5DGcKR6idQ3JvWLSf1qjemf6zN2PssexzL0vqX9TzGnZceI+y8z3rJ9S6R+klztFOMMGcNxfeJ/S3TdENIYjlQvkfpiMxFQl3Djvc0T4t7bxDanpibHPeH8J17qZ+m2vz2W2u7UjFErHkuSqiv1rxm/dg5TiPfl3861SXR7idRPk2prSePFUnWl/jXj185hlcbMwe+jfy7x++YMqZ2S229q/8vOa+r+Y8eT+g0Zq1RbO5auy9VOMachYziuT/zvGGPnVbPPZeaF+SGgjnXdQfXJ5smQ/eJTTU2G/2RzP8dPwNLtWK691Ddnmb5OaoxljsmZYn41pP342+L20rxK9aX+KWP7+VJjlMau2XeuRreNJY0nGVLr1Oyjpn0oaZwp+GOn9lOzfzfPMaTxfHFNTR+fv6+YVJ8i9Y9J/XyuJu4Xi/vlxPVD+2t+n9TPQ6T6lcar2d/YOWGeCKgjrevLUY574sVPwKFPyFz9Mk/uZfo6qTFKY9fse4r51fL3Fe+3dLtkquOYYpzUGKWxa/Y9dn5D+unasaSx/H/j7anbsVT70O1Tm3r/rt+y84/7TzHemDFKfYa052qXmdsyfWtv10j1KY1Vs68x88F8EVBHaX9tVP6LTzU1w0hPvqFPyLhe307x60qG1ktSY5TGdvMtkfquittfvN/SbbdtrHislCG1KakxSmO7uZZIfWNxXW2/kiHj+LVSv1K7L9U+dPvUcvsZOoe4vnQ7RaobOhdH91tmvFJdrj1uG1Jba0w/qU/ttpxUfWkc3V5D6ovNREAdY01fjopJT76hT8hc/TJP7ileGPwx3M9TjFtL72vK/Uljxdtq9+fq4n/HWra/5o8x1byGivenb0v8mhpj+mhSP39baVzdPpQ0jlZqH6K0n9ztuFZqd9tyfWO5cUrb3PZaro9PqqsljedI9T6pT47rM6SvX+v2K5HqS6R+Q/pjdxBQR1jHl6NiqSfy0Ce2rnektnhbrWX6OvEYtWP6damfpdsx3V6qqeXGKc2hZn9+TernoZbp68Rj1I6ZOoYx443pU2PsOKV+Y9uHbtd0W2l/tUrj+O2pWre91F5jyBjLjrtM/yF9nVyfoeONmc/Y/dfObcycNL8u9bN0G5uLgDqU+eLT59RHrhPanJqaAaQn4JAnoasv9RkyZmyZvs7YMeJ+/u1cm2TsHHyl+cT8Wp/ULt3OjZEypk9s7BjSMdS0xVxbrv9YY8cp9VvVuCnrPB+uJq7Vt/1tqZ/d7XhbLNcutQ2p92/n+klS9VONow0Za6r5+Jbp64wdI+7n3861YXMRUAfaqy9HSXRbilQrbSuJ+8RcTU1tyZgxpD7+trg9t48x+49NMR+9Tdru2lLbU20+V1NTWzJmDKmPvy1uT+0jVZeqr7XsOKl+qxo3Z+y+JLVj6bpSrWvP1aXGKY2tub6+VF38c1yb6hsr1dWOo0m1blvNOLqmVFdTIxnTJzbVfv1tcfsU88TeI6AOst4vR23Kk2yqeQ4dZ8x+V3lO13F/TbGPqeY5dJwx+5X6pMbR20ukfrHaOkmu76rGXYch+y/V6vYxxzPlOZDGSo1f2m/tvJatq5lH7T6coX2Gji8ZM0dpe84U88TeI6AOsUdfjgIAANglBFQAAADMCgEVAAAAs0JABQAAwKwQUAEAADArBFQAAADMCgEVAAAAs0JABQAAwKwQUAEAADArBFQAAADMCgF1lJvUG/c9oX595An15i1Su7Ooc/L1BfveVu85/Xt1xT6hbaNNfJ72wA1f+636zCuX1DVC2+odUsdfvaTOvfCk0CY4ckadO9/Uv3pS7e+1P6lO6rbOGXW4VyNp+51++pDQhpzjX39c/cN/OKb+/us3q6vuu0f9ffPzP3zvHnVcqF2vm9X3vtfMpZnPW38ptU/n5b/29vOXD5if/+GvbwvrzOvfr9SV/rZlmTGVurzxnqOn5BoAe4KAOkpdQH3pYFNz3wF1TGgb7g313uSLqJ3PwY8KbfM37XnaG9sTUBf2P32egLoONpC1IfA29dYyAdUG3GkC5foCahvSH1ffu6+57UJ6HFAbV57QYXKqkJp7TQWw1wioK/NR9eZkK4Gn1BWnmhfmE28IbdomB9Qpz9Pe2aiAWomAuiZSQBXCWZVJA+r6SAHVrCj3akuvhQN84lcThl0AUyOgrsp1B9RPJwpe7zv6+8IL6QYH1AnP014ioBJQRwsCql213OWAakO6HFAb9rL8ez8htA1BQAVmjYA6SPxZyUfUG9dJdY3Jgle7YiBehrL7WMwn1O7bzlm4hH7stkeauk+rl8zttu6nt91kt7txXLsn3q94eb5dGV2MkzhXy56nOy+pQ3/zW3Xnw3Hba+rOZvtnvvZae/vhd9Rn/uYddYPbbh166tmo37Nq3yuLdq0/dsOMF9b1AqqdW7J9iLtOqtP6srwThNE2oOpw2IZKWxNfwneX9sUx+koB9fAL3liWH1BNfzOH8HOtvRAbH1s0b7MfPddg/ufV8bu8MXaA+6zqggt0UpvvAfVyN04b/nSADfv4NYtL+63FfhbaGh0i0+O0knMbG8Ib5lL/qbfV+4S2agRUYNYIqGPd8mkhdMUBNjLmc5ZVqwWFFdTMXHUg9W+H87Tb/HkLY/U+Q2pD52JsF4aj0OzOS2zQebKBMg5/JkD+Ru2707+tg+Ji2zVP/SasiUOt188Psv1+wgpqvH+pppYNZkGwa7adPOJq7AqqDm5d6LShUAyhdSuu6YBq+wdBsr+C6oflbq7mWLxwGd9umEDqjd0F4W6btP8tZ1ZZpaAYKa6g2o8QaN3nXDOrtsn9eiG269f/eEIbTv3+S36EwZkiXBJQgVkjoI4lhj7PVCuoVS+ihYDqVjP99t78hTDaq2tr/OBpmGNdjCV/6SkxxynOU00YFGri1dc2eOpVVq+mEY7Vhth45TWsaUNzb3XW7C+aQ1EuaDpy4IyD3sKSAVUIlemAGtXZ1dI2sLbzkFdUF/2k40iH5wzzWG4eg5Lu8Rqv/PvC54FcM8FzXtAGvf7qZE9tQI0CovkWvfTFrFJALYwjjZvc1xATXOY3q7BTfJYVwEoQUMdaU0Atf/5UKwXU+HK+DZFBfU2AzL15u5pEiG2YOcTBdZLzFIfG9nZwab4ioJqQ6a+eOqavDa6JkCmF2O7SfkT8yEBKEOhS1htQzfbeuKmAmguRNnwnuGOeLKBuNG/lM7eSWhlQk5/vjC0ZUFMrqNX7T1kioLa/CWCCz7ACWCkC6lgbtYLa6AXNeO65gOpq24Aqhc+FvQiodvXTBUQ/UDp7EFD7n28dYQcCam8FNUJA9XmX1qUgOrOA2vZfzNdY9vK+ZgLqcr8TepLPsQJYGQLqWOsKqFN8BtXqVk313Hu1iTHMcYZfpKrazzov8WtecNRhsRcOKwJq1SX+qE8r/hysvS2F3cFqQtweBNR4uw3SwwJq3TwmC6jmsdw8BiUzv8TfJwfEeQXUtmbp1VIJn0EFth4Bdax1BdTK3/tnQqH0jXuf9wbdn5cQIO0xBKuhdozsKqpQ037EQDhfk50n97nPS+pOYYWzJqC629KXpBaBNBFGdb9u26Jf1SqqDXepb6a3YSxaRZW+JLWmgNoLo938hwbUhvk8az6As4IqSQXNdnt6lXL9AXWSFdMI3+IHth8BdZDM6sqqVgYb7edQS5ez+qs6yRDaW9302rz+8hgNaSUqcel+UZMIzxOeJxcK05fpCwHViD8/KoTdqEb3Dz5i4Lj5+OIazYa0VEANa6wgXNYFVBd0+7z9emEzFoTIYD46KLZzGBxQtfjYNG/eBFQb/HTw9CRDpl1FXdT2f81UPqDakCvpwmZNQG305uJUfOErZYIvSBkEVGDWCKgbYaq/ntKGUHn1U1hBBYDRxq7y5vCXpIBdQUDdFHbVYJkXZvmzoQ4BFcCE7OppL6Cmtldov4E/Uai0r6n8LX5gngiom2TUN1e9jyUkw6lGQAUwMelb/I30l7gyzOvfxCueZhVVh16CKjA3BFQAAADMCgEVAAAAs0JABQAAwKwQUAEAADArBNRKU84JAAAAaQTUSgTUtMOPHc/exjj6PA4ljbNqY/eb6rdXx4H5yT0WeJwA242AWmkbAqp+QR9KGicW19X2c/z9pUj9fFKfFKm/JtWWSONoUlvcV6rxxe1Db/t0Wy2pvyPVp0j9famamr6YL/8xUEMaw8m1l/pq/n58uXa/f66uhjQWgDoE1ErbElCl7Sm19XHd1PsZOp4ztp8z9XENHU+3DyWNs2pj9pvrs1fHgWkMuf9KtXG7f7tmP1JNboyaMXOW7Q9ggYBaaR0B9cZ7m5Bxb/7P/33wjs+pww8cVB8U2kpSL55Dt2t+W1xXuh2bon0MaSxfXFPTx1fqP3Q8Z2y/qej9l0j9HKley7X7/TFv0v2XI43hxO3+7VJfTarJjVEzZs6y/QEsEFArrTygXndQffKxz6mPXCe0dW5TB5oXwAMfltrKUi+eQ7drfltcl2uTlGrGtuf65frUkvrnxH1KY/j7qiWNs2pD9yvVu225tpj5D93I/6wNd4v6yAPN/gr/gWyfx/598qC6UaqbROWcpmKPrfT6k7q/xnDnMb4t8fuV6v32uN6/HfPHcOJ2/zaA8QiolVYdUKtWRj/8YPMCOP4NL/XiOXS75rfpnx2/za/JKdXl2v02/bPjt6W2S/y2uC7XVpKq19sdqV0ytHasVYzjxkptq63X5hZQzXO4mWsY4Jr/VK5sjvMOqPrfkriv49pS/8Y/p0g1uTFKY5bqS/0B1COgVlptQK1ZGW3fjD55xy1CWx334qn/LfHrJX5bXOePUaNUO2Qs35h+fp+4f67N3+5z2+K6IeIxJVK/lLh+aH/fmL5SH70tNVZq+6wCqg1vyzw/h9usFdTUdomr9fvE/WvGk2qWGbNUX+oPoB4BtdJKA2rNyqh5cyh9BCAv9eI5dLvmt8V1uX6SUn3teLrOcbel7Tl+bYnU3+fXxH19fh9JqaZmDF9cP7S/I/WrGavUL24Pb7f/mdPbJL2AaJ5bXo0f5mzgip97biXUjNXVyFxYa/vUXd1w43eigNl9Fj2Yu/fcr5xTMF6yffEf33Bei2PpzTfQP2a93f1b4vfzubaamhy3n5jfHtf7t2Ol+lJ/APUIqJVWF1DrVkGmWC2SXjzdtlybxG+L63L9JLq+ROq3DsvsO+4rjVUzvq4pkfqlxPVj+qdI9TGpnxbXSD/7Ss+JfmgUnmsu7Llt9nZ/JTT/PK19frZh0Z+TDdxe3y5Qdtvsvnvjl1470se7CKm2xj8Hbk7xuL2+Mnd/xfdb6ba0PVWj5dqcUk3cvmx9qT+AegTUSisLqOZFf7VfjnKkF09/25AX27H9JKX60jzGmmKseAxf3F66nTJ0PyVj55Gi+w8ZQ6rNzSk1dj4UJp4z0tUKu1J54MO5wJcPg1UBNRXwzP4XrwHSWPIKbSGgSsfaMON3feQxxOMZEVBL4r6xuCbu7/Pr/Hrp59S21DhOqb7UH0A9AmqlVQXUmjc2+c1puJoXU39b7sU2V5frty5TzEEaY8i4pf61Y+m6EqmfRKod0t+X2ndpvKF9Um3Z544NU7pvX/8/hIvL2Knn2QQBNREY4zAtjTUmoC6OSdCNv7qAWrs9J9enZry4JnU7/jdFt8fidv82gPEIqJVWE1BrVkbbN5Apvnzhv3jmXkhdW01N/LN0O7XNl2ov9XN0XS2pf0yqq+3ruHq/n7StpFS77Fi129z2WlJ/TWobWq/VBNRSmHLMWE29FF5bNWGw8J/IPQmohTmtKKAOIY3h5NpLfTW/xv0sbYt/TolrSrcBjEdArbSSgJp8w/KYN4XSRwDquBfP0otoTZ1f4/PbfNI2X6691Ffza1I/S7clusbxt/k1NeIx/O3xthw3To7UL5aqk7bXjqkN7T9FvZYNqDb01fzHrg1y7XMsPWY+DLrwlt1fKuCt9BJ/6bVj2oDq7qvSfZyr8+XaS301aT+pn6cw9XjALiOgVpo+oLZvDKU3UPNGkXoDGmjoi6dUr7f54nZXU7PNybU5pRq/PfWzdLtE1ztSe47Ux20bMl6ptmasXI3UNqTev53r5+gaiVSrpdr8YJluL6z49YJlG2yl55x5Lmb+Q9m2x/trxuuCng2DwRj9/dUH1NKcpP3FBgTUzLlx3H3l/5vi16Xk2kt9NX9fkpoxhph6PGCXEVArTR5Qq1ZG2zeE0iW1Wu7FeojUONJ2XzxOqk9quyRX67dJP8f/1tC18VjxtlpSv9xYrm0Maax4WyweI9XH3+5+jmtTfR2pPTVGaSwXCp34P3wupAZcwDIrjM3tOIi57b0g5gLfgrwa6tekQuVCPOchAbU8p357WDMkoDZsoF+MtZiTvu3q/J8lrr22zv1c4vetMaaPxI0z1XgACKjVpg6oyTcAT/pNaZyhL56rfrGdcj41Y9XWOFK7UzOWVjtW7XhDTTmuNFZq/Cn2u6pzgtWrue+mqlnGlOPzeAWmRUCtNG1ArVkZbVc2Sh8BAAAA2DYE1ErTBlQAAACkEFArEVABAADWg4BaiYAKAACwHgTUSgRUAACA9SCgViKgAgAArAcBtRIBFQAAYD0IqJUIqAAAAOtBQK1EQAUAAFgPAmqlXQioN33jqHrxR5/vPPeNm8U6rMrV6q23L1O/e+VqoS1v/9Pn1bnzlzqnnz4k1m2La576jfrM37yjbhDa1uHwC815fvWk2i+09T2pTpr75bw6flfcdkgdf3Vxv8k1smFzWIX28frL56U2AFgOAbXSvAPqzeqhC02oPLtfaPPavfDpHDsh1e9Xx5q2jQqo99+tniscj3T8rfvVgV6fCWTn1HfuwmVKvX2Fek5oq9eGIQLqak0XUD1HzmxYQG08/26lfk5IBTA9AmqlrQioyfbYtgXU0IGzQ87FEgbM6blX3tW80b9bnRPahiGgrsNKwuEmBtTGdI9dAFggoFYioM7cJgfUh69Qv5tsFYqAug4EVF97qV9duEpoA4BxCKiVVhFQ4898vvijo+qh+6M6G3K6mgt3q5tSbZFFMJo4oObmZPseO7G4rK7nYUJh83M8ptvuhGGunbfuE56rxSX5/jn0yZfuSwE1O6cT97fbg2Ne9NG1Q+dkVqAKl/ZNGDGXiVsnj8h16wioN3ztt+ozr1xS10Tb29D4G7XvTn37WbXvld+qQ089a7c3fYx+qAzbG197LWg37rykDvk1RjxWu89Fu5vLGPFnQ8+ow167uT9eeNKGSrlmcWk/1R4xY2UCarAvyw+opl3vI5q7nqc/Tulzr3edVKfNttI4HnOp/13qrYeFNu3xb6mLFy+qiy8/IbcDQISAWmnygGqCjhBIfUKNCUJROFrrCmpxTi6YtjW67bkLR72Q6QKaMKfeiqOt0eN1dXb8+FhqVysbZr7iuaiZU8OG1O782Nu9fVfNqbT6ZEOCHw5MgEiF1DWsoD78jgmAdwZhxIbDLlx6YbHb9pq6M7htw24QNG2NH4CF/fVXUNt+OhC7mrbfmJBqg2WwOtls8+6D7j8MXY29nxIrmu2X2MYH1LZ/2NZbQTX923l193/vsSI8PuL92j56nK6fHTv9H6Or1C9zVwEIqAAGIqBWmjqghmFN0oalXkg0oScOtqUA6gW9QCogpwJqzZzCANmuLLbHGRyzCXX94w/Do3xcYSC2pgioVXNqtceijzkT5qvmVHhjN8GgH2y6Fbxo+1oCai+MNuwK5yJECjWNYPW118cKgqU8ThxQze3eqm7bNwitFdrwmQ+TvXDYyIXQ5QKqfJ+mAmoYIsO+Zh69EN2G63So1UqPKy7zA5gWAbXS1AF1sdKoSUHRb+8LQ09lQE22x1Khq2ZOYV8/TPoBtf25P4bRhc/1BtS6OS2YcRJtRs2cCp8/bYNNu5rVI67WrSOg1gTEioBqgmh8mV5rV0Pb4Or/vBDvv12JTYjmkCesWAvWGlC7S+7hdjmgSgF3oQ3fCe6YCagAZoCAWmn6gOrYEGaD0CLMpEKiZL0BNT+nIQG1v1oZ2ouAWpqT499viT4TrKBWBZvAegJqGByllco9CKi9FdQxdiCgiv+x8SwRUMf8Dl8AkBBQK60uoDpxGBsSKku1Q8bSUkG0Zpy6gCp9lrVP3t+qAmrdnFpmDHMsmXNSNafCylNF6AitK6DaUKgDqLlUHwfNioBadYm/DajxZfp2xXSxzziwLqMmxK0/oMaBUfjMa8VjpWoeowJq4aMqADAQAbXS6gOqEArtl2/yK5atRWCS2qcKqI3inCoDqptTcs7agIBq91tzjMmAWjWnhj0HXfC0QbR/TurmlP89kjaIlEJFpxxQ25DSjFlYJSyyK6D7dDjsXUavCKiuJgiWbSD1+8VhtL2d6Fe1itqeI30OwhBm2YAWnp+mj3d7rQG1F0bdYyKaQ9V/ZuyxR3MPjAmotd/if/159TGpHQAiBNRKUwfUNlCGcoEw0AtnmgtXC12AEtr6NfKcWlFgy86pNqBq8rx6864KqA0bFBdjyUEzHVC1/JzaY+j3d9t792HNnOznUNOXR71A4vEDhAlMUXtLCEUmyOi2ISuzEhcwpW/K1wRUb5sJnK3+l5rcfrx28eMBNqQGhLm5ANoQA6qxCLHSeawKqN5+YougF+/HEwdkr03P2+xvcEDVpH16/QYH1IrPnx54Xr2uA+rF76hnDgjtABAhoFaaOqACvvX+NZ6hq7JAWu1j97GXCagA6hFQKxFQsVp2FWodIdWuoOY+BgBUqf1b/G4Fld+DCqASAbUSARWrt+pvQi8u7aYvbQO12sdrPpw+ob5pLu1fVK8/c1BoBwAZAbUSARUAAGA9CKiVCKgAAADrQUCtREAFAABYDwJqJQIqAADAehBQAQAAMCsEVAAAAMwKARUAAACzQkAFAADArBBQB7ryhFKXn9Z+pa4U2gEAALAcAupIJqieelu9T2gDAADAeATUsfa9rd5z+vfqin1CGwAAAEYjoI5FQAUAAFgJAupYBFQAAICVIKCORUAFAABYCQLqaKfUFaeUuvzEG0IbAAAAxiKgLul9R39vfu3Ue46eEtsBAAAwDAF1tDfUewmmAAAAkyOgjsVnUAEAAFaCgDoWARUAAGAlCKhjEVABAABWgoA6FgEVAABgJQioI7Xf3v+VulJoAwAAwHgE1IGuPKHMr5W6nNVTAACAlSCgAgAAYFYIqAAAAJgVAioAAABmhYAKAACAWSGgAgAAYFYIqBvk8GPHs7f30l7PZd37H7K/Od1PzhznBACAQ0DdIHGo0LdjfntMqk+R+jtSfYrU34nb474xvzZWas+J9yOR+sTbcobWa/7+nZq2GkPrAQBYJwLqBvFDhRQw9jJ0jN13qt/Q8aY89pqxcvMeIzVW6naurcbQegAA1omAurTb1IHmzf7Ah6U2p6ZGJoUSKVysO3Do/ZVI/WKputr+Tm6cmFTn5Nr9tlRdaXxJ7Vi5/Q/d79B6AADWiYC6pA/e8Tl1+IGD6oNCm1NTk+PCRCqUzCFsDJmDVKu31ajt49fEffzbvlJtblxpm1QTb0/VaLotVtMWk2pTpP4AAKwbAXUpt6iPPHBcffKOW4Q2p6YmzwUHKUDUhAoXPsZYxThurHib49pyNTG/NvWzdHvI9ty4sbi9dLvWkDk4Ul3tNgAA9gIBdRkffrB5U39Q3Si1OTU1leIA4d8eGi5yYw01pm+qz9h5+XWpn6XbbltJ3Nf/ORa3Sf2l2zXGjCHV1G4DAGAvEFCXcOO9TXi59zaxzampqeUChP43DhNDw8Wy/R2p35Cx/NpUv5rxUuPEfYeO5d/OjZuSGitH14yVGm/sNgAA9gIBdazrDqpPNm/o2S8+1dRUygUQbWi4iOvH9E+R6lNcfdxPup0b229L/SzdlqRqcuNKasYZwvUb2l+qr90GAMBeIKCOtI4vRzlxMNH/lvj9JXFNTZ+c2v36cvXLjJX6WbotSdXkxvXpttJ+amocqXZo/7HbAADYCwTUUdpfG5X/4lNNTV4cQnIBYki4kGqH9PfpfkPHc31KNdLPKan6uG9qLL09xa+Rfva3ue3u55y4TyzX5gypqSH1BwBg3QioY6z5y1GOHyDiMDEkXEi1tdvc9lpSfydu92/H/YeMletXGkdL1eTGjS3TrttK/WO5PtL22m0AAOwFAuoI6/5ylBMHCP92bbhI1Unba8fUxvSP2/3b7mdpW6xmnNRtyRQ1y7ZruiZW01ZjaD0AAOtEQB3KfPHpc+oj1wltTk3NCLlQURM4hvYfUu/fzvXz5fq42zXjpvq6n2N+raSmj7TNt2y7Ftf4t3NtNYbWAwCwTgTUgdb55aiYFCrctlLgqAkkuiaWqot/jmtTfX1STWq8FL9O6huPI42rt8XiGse15Wo0f6wUqZ8vrvFv59pqDK0HAGCdCKiDrOfLUSmpUFEKG1OGEWmssfNKqe03ZC4lQ/rV1JZqaseI1bTVGFoPAMA6EVCH2KMvRwEAAOwSAioAAABmhYAKAACAWSGgAgAAYFYIqAAAAJgVAioAAABmhYAKAACAWSGgAgAAYFYIqAAAAJgVAioAAABmhYA6ys3qoQufVy/+6PPq2AmpfUt84lfq8tO/UldKbVlPqpPnL6lznTPqsFiHljtf59Xxu6T2NdP3+6m31fukNgAA1oCAOspmBtQDZ5s5X7hb3SS09ex7W73ntFLv/YTQNsD+p89vZ0A9cmbCQDmzgPr+U+qKU4qQCgDYMwTUHVIfUN9Q723C6XuOnhLahiGgbqrpHgMAAAxFQN0htQH1yhPTrZ4RUDeY+YjH79UV+4Q2AABWiIA6yOLSfuuoeuj+qOb+u9VzZntUe3Z/WNe46RtHvbG01HheTS9g7lfHmu36owbhePerA177YnvouW/c7I2ltStn2Uv7d51Up/3PmL56Uu2X6hrrDKiHX/DmJIbH+LOxUY05Lr3tkDr+qlf3wpNdTbiPSHweTIj1a+LzUPFZ3Yo5deL9xTWmXe+jYizDXuo/8YbQph1Uz7x+UV28+B31zAGpHQCAcQioY524vwl4+UCpQ+OiNvq8aqq/T6jpr4J6AbTbbsNxFIqrVlBLq2Ym5ITBzoS2REhdT0B1gcvfT7PtBW9ONlSffvqQbXdzu6ROHglrgm029HW3HeE8BPRYQfCzcxx6nirn1O9v9+fPwfbTuvNgx+8dn/W+o7/PrKYTUAEAq0FAHasQUI8FX55qQ6S/WtmudrpVTkkbMnsrnN0KrdtmA2pFGK0JqPlA0oYeP+QZJuTIYW0dAbXdRyYsNuQQHYU4May1q5y9Yy4FVEHuXJQCan5O7e1eyDRz9MYUgm3y+Bwu8wMA9gABdawlA2p46V1aSfXb+xbjS2PLagJq/vOn8SXpkLQKt46AmlvBbSWCdcPMz/WdOKDKHwdYQUC1Nf19ad4cK+bcQ0AFAOwBAupYSwdUJ/ys6vDgOW1Aza+gFlbbBLsaUNtwGrbnzsUUAVX6D0JgdEAd87twAQAYj4A61mQB1Yk/Nyp/jrRv2oCaXzETPtdYsI6AWrOP9V7il8/TygJq7X8cRgTU/H9YAABYDQLqWJMHVKHG7GNEv4T2c6/Sxwl8hd9/aUJORRiyyuGxDVeDV/YCdowggDYh0f+SlDDvdm7efocEVFubOg9xIG73pY9zFQF1MX52FXVwQK39Fv9F9c3HpXYAAMYhoA7ShkF3OT7gVjorA6pZzfT7R+0dG1IDwSpofUDV4v1K/cznUHOXdW3YC/jh0IaqXk2jH+jsaqNuH7Ay2+eNYwhBrDevKBAOCahafB6CgOyCt9dm6r191pynAXNahGCPf06HBtSKz58+9nIbUC++/ITYDgDAGARUCNb8V4Rs0BNDIPZI5WPgwPPqdQIqAGBiBFTIzOrZOkKqW/nMfQwA61X/t/jbFdTv8HtQAQCTIqAibcXf4O4uSQeXxrHn9P1eCKcfe+Y77aX9i99SjwntAAAsg4AKAACAWSGgAgAAYFYIqAAAAJgVAioAAABmZesD6rPPPltF6gsAAID124mAeuUHr84ioAIAAMwHAbVBQAUAAJgPAmqDgAoAADAfuxFQb3xV/d3jP1O/aPzdXQ8TUAEAAGZst1ZQbVC98BECKgAAwFzt3CX+Z//8Z+oXf/58uI2ACgAAMBsEVL2NgAoAADAbBFS9jYAKAAAwGwRUvY2ACgAAMBs7F1Cv/Mj31S8e/4/q1RsJqAAAAHO0ewHVeF5dML926vvqWQIqAADArOxcQH3grv/YBVO3jYAKAAAwH3wGVW8joAIAAMwGAVVvI6ACAADMBgFVbyOgAgAAzAYBVW8joAIAAMzGjgXU9tv7f3fXw942AioAAMCc7EZAvfFV9Xfm10r1V08JqAAAAPOyc5f4JQRUAACA+SCgNgioAAAA87ETAbWG1BcAAADrt/UBFQAAAJuFgAoAAIBZIaACAABgVgioAAAAmJXdC6iPnlX3fP/NhW+/pD4g1c2Jm/MmzHUPHDj7efXihbvVTUJb2qPqtc/+TP3kjkeFNuyCBx75lHrnmw+qd77wJ2L72lx/Vv3k8QvqK1LbWGbM9nc/8xgHsIl2K6B+/CV1exP09j0qtO0FEzx/qD70caHNt8UBdVy4DI0Z4yv3Nm/enz2rDgtt1W69Xf2tDjjGPerLUs1a3ajO/JWbT+u7h6S6zWVC5V/drh4Q2oaaTUBtmMfjZCH1q+oHBFMAG26nAuoHvvTDeYW82oC6xfYioB6+48dLhoE/Ud/VwcYEJf9nqXZd2nD6t4/c2G1rA9in1Jlb49rN9eUvzCNQTq9d0f/FvV8V2ga69cKEYRcA9sZOBdRrX5zZKiQBdf0B1V76/MFUoc2tos4xNNm5bc8qavufAT+Eb5WpHpsEVABbgIDqSGEx/kiAua1rHlQf+nYzlr7srr34xUWfqK9UY+bht/n8+blL+460H+OLap9fJx5H5bwLTBg8u19ddeJ+9eKPmp+No+qh++Pa/epY1946diLd5nvuGzd742g3q4cu+DX3qwNeuzynsMYxq6eZS/vdCl1w+T4T8g7ds/JL6YPn5Kxhbt1lcqsfHgsfOzDH1K7ymuN0dd6KdLyPULRCHJ2jfo1d8bbEc1Mxp7DWq4k+6rH4SEJ0HhL/oZnmoycEVACbb/sDahzyIl34rA6oUr/oc6122+1fejDYFtR0ddE+RTZYZoKwvy/zUQZ/TrXzrmDCYBQA221+INSBMgyIN33jaFPTD7Ll1U8bZoOaZpsOpPZ2N6euxgba3rily6j2MvkX7ukCit5uQkriEv7qL6MPn5PThqtVfTZW+miDnqu3PxfevDDWO18mRN+jvqvn6upsv154NLXpc+2CrN+v3baY05eb89j+bAOjFBQr5yTd9/H9Ym43+9TnquubO44pwiUBFcAWYAXVkcJiIqCGoa5dvVwERLuaWbM6OUFAlY8pqq+ad51+GG3cf7d6rgmIixVSQaKmFFDF/UWkMdpAHPdrvzySvoTqVtfC8GCCSCIMrjYEasPn1LVnwtyyygE5FQDDy/TtPOO6tiYOqNljToTa9DzTAbVqTmZ/8fm191XXz+4jnlcuoE5wmd+swk7xWVYA2EMEVGeqgCrWJCwdUNvtUsgMvhA2dUDtBcp2lTO4NB9cbl8YFlDtSqi3WiqpDqjFN/84YGiZlTbXlg1qyxo6p9WH0+QKp08McFp7PGFAjeoSAa5djcwdc/wfhdx5igKnp2ZOXYiNhB9xkO67giUCavubACb4DCsAzAAB1SGgVskF1C582nAaBNZRK6gTB9TSCqoYjMJAFRoRQIYaOKfVr+g2ciuAlhwYG0FwlQOk3Dd3PyTCq5lnIkgnj6FmTvn/IHRqgnzMBNQfq9euF9oqTfI5VgDYYwRUZ6qAOiT4LR1Q9+gSfxwoTfhcfL5UDIfLXOLPtGv1ATX/GVQxGOVChm1LhaYpDJnTWsKptkRADS+5y6EzrLEKYa8fUG2ITMwzNb+6OVUG1Irz1MNnUAHAIKA6iTAqfdmoFPR6X1LSmjAa9mvY8cohMR1Q25Ar7d8LvisNqPZLTP4qp1lB9b4QZcOpdIm/DZLSbwGwXN9gFVX4klRVQM3/DlQxGJmQkQh9FQFk/9Pn1bnzl9S5F54U20vq5uTCWF04XXZO8spxs82/LYR3cyz++RJDZ3ss/dBfsYLaHb8dI/pimS8MqM3Y7hxXzqntn7/v0yE4jW/xA0CLgOpxwbJ1Vl1rQ9zQgGrY4NiRwqVU580vnI9PXuldtOu599snC6g2bDr9XwsV1+kAGn0MIFkrjWdDcCcMnkMCqvuMX/+v7MjBqBcQTTjUYahPDE9HzrRh8Px5dfyuqK2obk5tOJNNPyfLBrnFvoQgFp+rmvCfWymNx4sDstdmjlsa3wnm7wXNAXMSz3s3p/a+K66y+ib4gpRBQAWwBXYqoGJ5UhjcNMv/JakhDqnjr+oweGZGnwmc45x2HX9JCgB8BFQMsg0BtQsD63gTt6uVp58+JLfvhTnOace138Cf6PGYvEoAAJuDgIpBtiOgam1IXd2b+JPqpLmMfkmdPCK174U5zgltoJz4P0tmFVWHXoIqgM1EQAUAAMCsEFABAAAwKwRUAAAAzAoBFQAAALOy9QGVsAsAALBZCKgb4vBjx8XtWJ0pz/kc77+p5zRmvFSfIWPlaofOaYr5rNuc5was2tTP2VU8n9yYtWPn6obOL1U/dJy9QEDdEFM9mPQ4JVK/OZOOoUQaJ1ZbV2PKscbwj71E6l9jbN+439BxcvVTjeW2Dx1vDL2PlFR9zXZ/nBS/3ifVpkj9AUd6zEikvo7fXvPzUMv0lQydV65m6NxS9W770PHWiYC6IaZ6EMXjlG5vutrj0XVjSeP5amrWJTWX2uPwSe3xNkk8Tg1pHCduj/v6/Loh9amfVyE1/tDtWm7epds+qa12GzBE7WPI1cX/xu05umYMaaycoX3ien/fMb9uSH3q5zkhoC7tNnWguXMPfFhqc2pq8lIPIPeg80l1Ttxeur3pxh7PMv3GksZbhXhftfv269zP+t8cV19jaL2T6zfVHMbObYyaOaR+juXqSrd9UlvtNrQ+eMfnzPlxPnnHLWLdLhvz+En18c+1I9XE20pSffz91JLG0ca2SVL1Q8fZCwTUJZkXnQcOqg8KbU5NjUQ/gFL8mriPfzvmj5Ei9VuNW9RHHmj3uUx4T1nmWKY6D+s9n316/2NJY0k/57aluH3UGNJfqou3+eL+Q0jjTcEfe+jPOa5O/xvz2yVSW+22zWdfp+69TWjz2ptjj8mva+2CxUYF1A8/2BzP59RHrhPaBtDnxP/X3+5vS9W5bTlSv/h2altJrs/YNkfXSKS6eJsv7j+ENN5eIqAupX1hyr/Q1NTkxQ8c/3auTVKqL/WfSrua0Lzg3aFf+OYVUP1++ucUv0+KVFfbd278eU99XKvqO2TcqcZZlr+voT/nxHWl2z7dVkvqv9kqA2qyPUZAHfNzzLXF/8Y/S7djur1E6ufL1dT090011pRz2gsE1GWYJ+2D6kapzampKYgfSP7tXJukVF/qPwl9TtyKsjk/0wdUPaY7lqHHVKqvHS9VN3Q+U9H7LZH6OX67VFvqr7n9jCGNp/ltcR+J39dX25arm0JqXzU/+9scf1tck7vtk9pqt20+AuoqAqp/O/43bo/526Wfa8eZUm4fQ+fjt+ufS/y+vtq2XN1eIqAu4cZ7mwdH4UWppqYkfvDkHlilB5puL5H6VesCefsi7MZMvhivIKC6Y/CPxf85R9flaqcYp3aMqZX2O6Rd/1zLH0NSU5OzTH9/nhK/Tvp5FWr2WzufuK7E7+uT2mq31XGf01+8bujXBPP62fwcvn7YQGjrXG2vPXrdNWN5H7XqXpvta1DLC2HXHVSf9PYRW+xz4oAa7zf4eNiQ87TY7kjnSfcJPx+7WFCJ+wdGfmxt2e3xttRtf7s0ztT0PmJ+W1zr346V2nPcvlP8OunnOSGgjmVfRMInfKSmpkB64OQeWKUHWqm+1L+oe7FfvNB3l/Ol/31PHFD9+Q89Nteeqiv1d+Jx9L8lfv9VkfYbk/o5fntcWztGzO8nkfrEcrVDxpC2O3577ZhjpfZV83Ostk6rHWfotjoucLWvEzoYffKBz3nhyYUmW+eHQfsasghnAwKqHqvbZvv1glcpgE4YUM2xhK+V4bxrz5Mwp977ka3R43V1wvnVhHmNET8+3O3437g9JdeeGtOn24aSxtHiNv92rk2i21M1pb5OzT6kn+eEgDqSeTEo/A+ypqZG7oFUul0y+QNTeiHLBfUJA2rNuUgdr7/d/az/reH6+X3jn32p7atW2u+Qdunn+N8SXZerrRlnqjGkn31ue814y0rNp+bnmFSn/43FtbG4PkfqXxYGozY8tmHLD15hCFsIQ5wcGMOa/m1NHr8yoEbnIR3oUgG1Hae33bx+urHqzlP7upo4T91x1J0nYwUBdejP/raUuM7/t0ZqjBqlvu52aUzdnqsp9df8mlS9214z3l4hoI6SeoHx1dTUSz2YSrfdtrHisYr2KKBKc03Nv3RcY/vFphpnKnq/JVI/J1Xrfo7/zfFrc+J+jt8e17k2iV83pN797G9bFWm/tT/HpLq4PrXdJ7XVbqsTvl76IckPXmHA8gSBbI8CarI9lnpvsOEzoX2NrDtP7c/9MYzumPcuoLp/4+3x7Xi7rzRGaltOzZgppb7udmpMvT1V49okft2Qevezv21uCKhjBC+GCTU1A0kPpHhb7YMtfnDW9iuSXshWHFBTcx+63RnbLzbFOLp26H5rjBnT7+N+lrbFP/v09po6Ldfmm2IMZ9mxdM3Qfaa4caTx/G25/flj+D+navztPqmtdlsdAmp6u29IQC29/+xdQI1vpx43Q7bXbsuJ64f0r+nrb8uNPbZNMuVY60ZAHSH5IumpqRnCPZDiB1TptsSvSf082poDam7OY48n1W/oeFOMo2uH7jfm+sfjpMat3V9pvJpxdE2O1CeWq6sdw/H3Hff1b8dt/vZU21A1+9NKba7d/zfmt0ukttptdZYLXmGo2tSAWjNO3XmqC5R7H1BT25xUm97ut+XGTY0Ry42Ruu2L9yf19bfF7b6xbRK3Xyduk36eCwLqUMHngRJqagYoPahifq1Papdu58YoWnNAzRl7HKl+Q8db9Ti1XP94nNzt0j6l9tptvlx7qa+zzBi6PZaqk/6V5NpqSWOkxq2dS2leQ8eXtpf2kVYZvOxrSRCqhNcQMYzqfvG2KIhlA7CwvTVVQG3YYxHbjMrz5OaUnLM2IKDa856eV52hj49SvblPEzVue+0+pbp4W2lfNbfdz6mxtLFtmm6Ppeqkf+eEgDqQeRGIn7yRmppa0oPG3xa3p+ql7a4ttT3VllUVUNsXWbePwETnTdPjSdtL4n7u9tDxzPEMkBpD2l7L718aa0itZGyfHKmP49r9Or9viquVSO3xttw4pfFr5Mbw29zPtftM1ZXGqdleGqOsNngtavW+WtJiQFijx41fl4cE1EXgW1i8nvXb+jUu5Eqi/dmQGujmOeQ8yfPqzbsmoGrxvKSagqB/JWkczW+P60q3Y6n22nFy40tteltqu/+v+7nE1Uqk9nhbzTh7gYA6SPjiIKupqbOOB8wcH5RTGXtsUr8xY83x3Oo55Uh9ao3pn+tTM96yc47F46XGn3q/Tmnc2vnFho5b2i4ZUgvUkB5Teltqu/9vbMhYPleTqs31H9OW6zNGPN669jsFAuoQ5n+QuUsmjZoaAAAAJBFQAQAAMCsEVAAAAMwKARUAAACzQkAFAADArBBQAQAAMCsEVAAAAMwKARUAAACzQkAFAADArBBQAQAAMCsE1FFuUm/c94T69ZEn1Ju3SO3Oos7J1xfse1u95/Tv1RX7hDa3r/sOqGO9tmldeUKp9xw9JbaNpce8/LT2K3Wl0A4AAHYHAXWUuoD60sEpA+Mb6r1NgEsHw+kC6v6nz6tz5y+pcy88Kba3QXm6kPq+o78nmAIAgA4BdWU+qt5cdsW0c0pdcUqpy0+8IbQ5EwTUu06q000wPf30SXUyF1C1T/yqCZWp1dwh2mObekUWAABsLgLqqlx3QP10ooBat8K4bEB9sgml59Xxu9zPhYDaMJflT72t3ie01SOgAgCAEAF1kMWl/dYj6o3rpLrGZAG1PsAlP1JgVkZ1+Dykjr/aBE8dPrMBtC6gukv97/2E0FaNgAoAAEIE1LFu+bQQUOMAGxmzujkgBOYDahtKTx6x246cCW8HKgPqJOGSgAoAAEIE1LHEgOqZagXVfNaz7gtEJqAe/Gi/zQbUMIy2IfT004e8bWFbOaBOcJk/+5sJAADALiKgjrWmgDrkG+4bFVDtyvDyn2EFAADbhoA6Fiuohgmo2d8uUDDJ51gBAMA2IaCOta6AOkWAW1lA5TOoAABgegTUsdYVUG2AK69Str939ddHPq1eittWFVAnWf0koAIAgBABdRAXAgXxpfXJAqr7HGrpi0TLB9TDLzShVAfTHvf7UUP8HlQAALAKBNSNULuKukb8JSkAALAiBNRN4b71PoeQaucyVag0K7H8LX4AAGARUDeJCYZ7/ztDdaCcdsXTrhDrAE5QBQBg5xFQAQAAMCsEVAAAAMwKARUAAACzQkAFAADArBBQKxF0AQAA1oOAWomACgAAsB4E1EoEVAAAgPUgoFYioAIAAKwHAbUSAXWI/erYjz6vXuzcrw6IdVvi+Xcr9fN3q3NSG6Zz5Iw6d/6SOvfqSbVfal+zcxcuU7975WqxDQCwHAJqpZ0JqCfubwLlUfXQ/UJb1+6HT+vC3eomof6mbxxt2jcroB44mz6enoevUL/7+WXql88LbTVc6HJmEr6mcviFCY9pZgHV3feEVACYHgG1EgHVKrVHtjugXqV+uUxAueukOn3+vDp+l9v2pDqpA9gLT4Z1G2zSgDpHZvX8Xeqth4U2AMBoBNRKBFSLgNrRl3jV21eo54S2sfY/fV6dO39GHRbaNtHWB9TGKh4HALDrCKiVppyTCW1NADpgwpsNQ/ffrZ4zl8ujMBdfUo+DkxQY7VjHTvi3dc3N6qEL3lhn93d9TChz22P+PicOqPF+uzk3Bp2nbrslnifdJ/x87HPfuNnWxJ+bDS3qnHb1NHVp3wQzvRIaXML3V0tlbUAt1y3DzC07J7uSm6rpVn4PqeOvenXdym/cP3T66UOLsRrtMXs1caCNPwYhrTCbGh3sw33H+9LC47+kTh4J2818zBzKYxnFj3k8ob558aK6ePFb6jGxHQAQI6BWmjyg6uCjA6INj89dWIQnF4baOj8MuoDphbPqgNoGrW6bDb7dbacUQCcLqPZYvJAcz7v2PElz6q2C2uP16/rnt1W1glq4tNuFoC5s2TBXWE1s+61qBdUFSn/8ZtsL3pxM+AzDmAuQXZCzNcE2ExD7Yc8cT+6Ym35h8Mt9zMHOPxlQ9ZwWYbof9oX+9lj8efuBOTw+KcxrV6u33s591IOACgBDEVArTR9QbTCyoawNW37wikKYE4dPKTDGNfFtIzF+VUDVQS/iB01PMqCacfrbTTi0Y9WdpzboyufJO46a82TVBNTnXnlX9rKuFMza4JMJnyYEZVbqltQPbH1yoIyCnRDqXLCM514MqIJ0n1JAjY4tnqep6Z9/sz9vTPE8ice8wGV+AJgWAbXS9AHVhrMgJHnBKw5YnSiQ7UlAzbRHUgG13e4FXJ8Nh1Xnyf4sjtPojnnigFoKJIMDqluVHBjmhiiHxTYASgHZzN31nTSg2tCpj90n9lkuoLbnP9qP4+0vez8lEFABYFoE1EoEVGvSgNrf7hsSUHvHEZs4oE66gurC6cBQNNT8AqoLp+Fxp/tMEVDL53h0QL1wldgGABiOgFpp7QE1FbziULWhAbVmnLrzJHyWVTJxQK36DGpVQHVfxFltONVqgpccDqNgOFlAHdpnuYAq1giGB9TSZ1ABAEMRUCutP6DaoBSEKhvG/PCUCKPB5W0xiOUDcG+7M1VAdccitrVqz1M7p8yctQEBtd1v6RjzvwO1LqDKK4gyF2TLASvNjhHMq5mD/yWpIzrEhaGxnbe33wEBtdc30A+c5rz15piu75h5FwJq5fkeHFCrv8X/HfXMAakdABAjoFbai4C6qG0DpyGsFIY1etx2nC54DQmomg18HT8Qx21Sjd2fVBfuz4XUkJvnkPMkzqs377qAqrX/OViQzpO5rJv4E6c1AbW9bQNZrBfCXLiS2obwxjGE8GiD3aImCmsDAqrWhU4rqIn31RybOS/euUufJ2/uR2oCqhYff8uvGRpQy58/PaieeV0H1Ivq9WcOCu0AgBgBtdKUc8K2WPIvSQ1lQpgcArFHav+S1OPfIqACwAAE1EoEVIhMQFlHSK27PI01qv5b/G4Fld+DCgC1CKiVCKhIMiFVvtQ/he4St/i5TOwVfWm/FE4fe7m9tH/x9efVx4R2AICMgFqJgAoAALAeBNRKBFQAAID1IKBWIqACAACsBwG1EgEVAABgPQioAAAAmBUCKgAAAGaFgAoAAIBZIaACAABgVgioA115QqnLT2u/UlcK7ZO65dPq10eeWDj4Ublur+x7W73HnAul3nP0lFwDAAAwEAF1JBNUT72t3ie0Te8m9cZ9cwuob6j3EkwBAMAKEFDHMquHv1dX7BPaJjfDgPqJX61nFRkAAOwcAupYBFQCKgAAWAkC6lhTBNTrDqif+p8xve+AOibVFQPqR9Wb/jiaUPvSwbDmzVvC9kEIqAAAYEUIqGMtG1DNF6AeUW9ct9hmAqQYUnMBtWZ1Vaix4Xh0SCWgAgCAFSGgjnZKXXFKqctPvCG0lbSB8ae33RRuN6ExDK2tXAhtV097Y/lMGP60einabgJxNtimmS+JjTp2AACAPALqkt539Pcjfs2ScEne01/VzK+SHrvtkUV/oSZojyU/ViBzv2brvZ+Q2wEAAJZFQB1tmV+zVLHqGai5jN/wf2+qFzzbgNpfQV3Gen/NFgAA2CUE1LGW+gxqZeDsDKyPP98qfN51aXwGFQAArAgBdaxJviRVu4o6LKD2V0xt/ylXUQmoAABgRQioY03xa6b8S/LJS/NRu+Gthsa/qsqQgqgLqSG+xQ8AAOaGgDrWFAF1kxFQAQDAihBQR2q/vb/DAc0EdP4WPwAAmB4BdSD3a5Yu3+XVU8esorbng6AKAACmQkAFAADArBBQAQAAMCsEVAAAAMwKAbUSQRcAAGA9CKiVCKirc/ix4+J2Ldc2xFTjOMuMN/VcAADYNgTUSgTU1dGBLZZr0/z+fq20Xcu1jVEz3ph5AgAAAmo1Aupq+GEtDm65tpRUXW3/WjXjrWsuAABsGwJqpXUE1BvvPa4O33ub2OZ88I7PqcMPHFQfFNqGuU0daILSJ++4pddm9tG0leZy1YcfbOsccV7tfhZ1n1MfsX+mVd8Oa5eXGrN2X4t5hqS6eFssVTN2PAAAdgUBtdLKA+p1B9UnvfAma8PegQ9LbUMtGVDNfEtzuUV95IHCOA2zr0qp/tK2krhPiquN+/viPq6+ZnuqDgCAXUVArbTqgFq1MmpWLB9UN0ptg6UDao2q+VaF7vqAlqsrjbFMCJT61oyXqvG3LzMvAAC2FQG10moDas3KaLsaOTZQ9i0XUM3HEaoCdV1ArSX113JtWqnd59em+tWMp2tibrv/LwAACBFQK600oNasjFauRuaYUOmFJc0PqN2lfaEtNnVAlbbHaupSNbX7cFy93y/1c0qqRm+v6Q8AwK4ioFZaXUCt+5xmVSBMsvsI+udWUBNt8ZeiIu0KcNtXajeE4xTrEuK+MalPjjSGI7W7baW+Wqqmpi8AALuMgFppZQF1HV+OElcyRwRUzxxXUHPtY0Kh1MdtqxkvVTNmLgAA7BICaqVVBdSaoNdeeh//5Sj5C03zCqi1Sv1T7dL2HNdnmTGnnA8AALuEgFppNQG1ZmV0+S9HzT2gOssGOqlubBj0+40dN1UzdDsAALuGgFppJQHVBLjVfzlKXIG1v8d0LwOqDmRjpcbL3U5ti61iHP2zu53qWzMmAAC7gIBaafqAWrcyaoJg6S86lcRh1N7WgWgvA2ps2eDm1+X6jG3z1dTpGife7t8ubQcAYNcQUCtNHlDX8eUonwmLLjDp1dR+QDahs6vx9Vd5pw6oej/Sdi3X5nN1i3nnxf1ruH41/XM1bg4xqRYAgF1DQK00dUCtCXjLfjlqU5SC2ZjgtooxHYIkAACrRUCtNG1ArVkZXf7LUQAAAJuIgFpp2oAKAACAFAJqJQIqAADAehBQKxFQAQAA1oOAWomACgAAsB4E1EoEVAAAgPUgoAIAAGBWCKgAAACYFQIqAAAAZoWACgAAgFkhoA505QmlLj+t/UpdKbQDAABgOQTUkUxQPfW2ep/QBgAAgPEIqGPte1u95/Tv1RX7hDYAAACMRkAdi4AKAACwEgTUsQioAAAAK0FAHYuACgAAsBIE1NFOqStOKXX5iTeENgAAAIxFQF3S+47+3vzaqfccPSW2AwAAYBgC6mhvqPcSTAEAACZHQB2Lz6ACAACsBAF1LAIqAADAShBQxyKgAgAArAQBdSwCKgAAwEoQUEdqv73/K3Wl0AYAAIDxCKgDXXlCmV8rdTmrpwAAACtBQAUAAMCsEFABAAAwKwRUAAAAzAoBFQAAALOy9QEVAAAAm4WACgAAgFkhoAIAAGBWCKgAAACYld0IqNefVT95/GfqF42f3PGoXAMAAIBZ2K0VVBtUf3Cr0AYAAIBZ2LlL/F+592fqF/d+VWwDAADA3iOgAgAAYFYIqAAAAJgVAioAAABmZecC6lW3XlC/ePzH6rXrhTYAAADsud0LqMZX1Q/Mr526oL4itgMAAGCv7FxAPXzHjwmmAAAAM8ZnUAEAADArBFQAAADMCgEVAAAAs0JABQAAwKzsWEBtv73/kzseFdoAAAAwB7sRUK8/q35ifq0Uq6cAAABzt3OX+AEAADBvBFQAAADMCgEVAAAAs0JABQAAwKwQUAEAADArBFQAAADMCgEVAAAAs0JABQAAwKzsXkB99Ky65/tvLnz7JfUBqW5O3Jw3Ya5rcODs59WLF+5WNwltU5vzn8b98hceVO/81e3qAaENJTeqM3/VnL9vPqi+e0hqXyPzh0QuqK9IbWN5f5yEv5wHYBPtVkD9+Evq9ibo7XtUaNsLJnj+UH3o40Kbj4AaWFdAPXzHj5s3+ImDw2RswPrCnwht2+uBRz41USifUUBtmP8ITfZY4086A9h8OxVQP/ClH84r5NUGVATWElBvvdAEhh+r164X2mbhT9R3m3D1t4/cKLRtL7NqvJWh/FH12mcnWq03j925/scKAOrsVEC99sWZrUISUEdZfUDdgBWoW29XfzuT1b/12fJQbi/L/+BWoW0IAiqALUBAdaSwGH8kwNzWNQ+qD327GUtfdtde/OKiT9RXqjHz8Nt8/vzcpX1H2o/xRbXPrxOPo3LeJSfuVy/+6H514P03q4cuNEHxR9bZ/VFt1P6jo+qh+732++9Wz5ltpXEaZp9ejRYHVDNepv39+9WxZvuxE9eqm75x1BtLH4tf1yi8wcuf/WzDU7e6ZwLkp9SZJmyYet2mSZenD92zaE/V2EAa1Nnx/bpgX41VhzlzyT27v8WldCcI1RXnKd5HKDoH8bk07lFfFtu97T5To9uiuQsrt725RTWLjySUx9LMpf7PnlWHhbZqBFQAW2D7A2oc8iJd+KwOqFK/6HOtdtvtX3ow2BbUdHXRPkU2WGaCsL8v81EGf061867hhcXnvnFzu82GQx3+2ro2DHbtXT8vpHqBsutnx16M48JkGG57K6jx2FKNnZOZe7fdhuMoFJdCQhtKonBjA2QX0GzI+a5/SVpY9WxDmR+yoqDbcCHI77cIPul+0v6mY/cXzEGHMO+8uFDdOxbveCvP06K2H8qd/rm027o5NnMu7aPRnttmTk2gDO9Pf2wbOIX7wA/pZv9faMby95U7jinCJQEVwBZgBdWRwmIioIahrl29XAREu5pZszo5QUCVjymqr5p3JSFExoHUhMreCmYbBtOhVouDrRB0G2H4jMZ1uhVat80G1CiM9oNs+1nA7OV9KWBE21yoDAKjDTCloNL2tUEvEaTa4LMYO76t9cLghMLgJ7EBLppTHOKqzpPVBsfEPsVzmZpDIxNQzbF5czRMfXT/xnMxc/DHXKyaBvtJ3O/GBJf55/ybJwCgFgHVmSqgijUJSwfUdrsUMoMvhE0eUMPVypgJfToMSlxArAmovZDZCkOlDZ4Ji/HlsNtX8flTIdzEAVEMh1EwkUKl1vZtA6r/86ImXqlrb5ugF4j7TSQT7jpRoFuQAmr+PDmp89W19cJrfJ48Zh/y+WkDatgW3g+L4BmK52zvl8ScRUsE1PY3AUzwGVYAmAECqkNArVMbUHsrqJGJA2o5eNbWVayg2oDSBZ9eGJNX7sKQkw5PfhATQ1m8UpdbkVuFiv3JwboRnKua8+RkwmZ8f1hi+LXkQKvJ+wnqawK6VlvnMwF1ud8eMcnnWAFgjxFQnakC6pDgt3RA3atL/PmA2n5uVPjyka86oMY19nOj0SV+8ctVgdqAWvcGH4fIMNBUhJxU4IpCjb+fllu984LXBgXUmnMQ1ljZsCcF1HZsMSQngrEh7ieqrw2eY+4XPoMKAAYB1UmEUenLRqWg1/uSktaE0bBfw45XDonpgNqGXGn/XvBdc0B1YTC7iloTUFNhNB7bfi42Hz7rA2r7Bp9fxTIBrAlRX9b/xkEnE3L8EGWCmB+gbD9/vLDGjvFXcfizYUwKXIL9T59X585fUudeeFJsL5P212zzb9tj6R+vF9gqz1NLDrMtGyCj4PvdL+iAWBFQmyDZjSuGSjteN894f7LkKnLGJKufBFQAW4CA6nHBsnVWXWtD3NCAatjg2JHCpVTnzS+cj09e6V2067n329cXUDUbUgNev6qAutjmxtD14pewbEgNBDUDAqr9HGr2iyYmyCRCimmLgkkmjPmfY+yvytkwaJkglRnfHyu5enfkTBtQz59Xx+8S2mv09icEMXeOnPhcVZ8nKx5PCMSuTfd3/4mQQmQbHm29VyP2MfuVQ2s3htULsZX/aTD4PagA0NmpgApUq1hF3VyH1PFXdUA9w+cUZ4O/JAUAPgIqkNB+K3oLQ6pdQT399CG5HWvXPtYmCpV2JZa/xQ9gkxFQgQwTHLbmd0o+qU6aS/uX1MkjUjv2hAmUE694mlVUHXoJqgA2EwEVAAAAs0JABQAAwKwQUAEAADArBFQAAADMytYHVMIuAADAZiGgAgAAYFYIqAAAAJgVAioAAABmhYA6yk3qjfueUL8+8oR68xap3VnUOfn6gn1vq/ec/r26Yp/Qtof2P31+3J/NNMfzK3Wl1DaWGVOpyxvvOXpKrgEAALNGQB2lLqC+dLCpue+AOia0DfeGeu9MQ9fogNq48oQOk1OF1PmeIwAAUI+AujIfVW8uu2LaOaWuONUEuRNvCG17b5mAOumxfeJXE4ZdAACwVwioq3LdAfXTiQLq+47+ftbBa7mA2rCX5d/7CaFtCAIqAABbgYA6SPyZ0kfUG9dJdY3JAmq7wihftj6kjr96SZ174cle2+EXmu0uNN51Up0+f14dv8vWn7eEfm3YzNe043k1RhxQo32Z/fvtIXOp/9Tb6n1CWzUCKgAAW4GAOtYtnxYCav9LUYExn0ctrC62gTIOf0+qk00oPP30ofa2FyhPHrE1R86EtxtBqDXacc69elLtd9uEfv0V1Gj/mumXCalThEsCKgAAW4GAOpYYUD1TraAWQ1dFGLQB1Q+VqRAb1jSCseQV2zigmtt+qDXavsE8fRNc5jersDP9nC4AAKhHQB1rTQG15vOnZuXTC4Tmth8iawKqCaLxZfpFXdvX/3khDqjtSmyC9JEBbYmA2v4mgAk+wwoAAGaBgDrWbFZQGyaAulVOIUTuRUDtraAWmIC63O94neRzrAAAYM8RUMdaV0CtWln0Lp/roBmHw8ku8Ud9rPizq/3PpFbgM6gAAMAioI61roBa+XtC3ec+jzdhMQ6QVQG1+9a9HyzbGv+yfBxGF5fzhX4DVlH5Fj8AAHAIqIO0v3xf/Ib+wY+GtZMFVPc51NLlbxsKpZXLqoDaij8/2gu70a+PMu3ixwPcfHyJb/FP8AUpg4AKAMBWIKBuhHn/Janl8JekAABAiIC6Kewq47aF1PYb+BOFSnuO+Fv8AABsNgLqJpngm+6zYo5n4hVPs4qqQy9BFQCATUVABQAAwKwQUAEAADArBFQAAADMCgG1EkEXAABgPQiolQioAAAA60FArURABQAAWA8CaiUCKgAAwHoQUCttf0C9WT104fPqxbP7hbaMh69Qv/v5u9RbDwttG+tZte+V36rP/M1v1Z1bdVx7Tf7zujtF/LPDqLf4U8uzOIfm9e/d6pzUBmApBNRK8w6oI8NlYMwYV6lf/vwy9btXrhba1uzOS+rQZIGSgLoaBNSdDKiTHvPMAmrj3IXLlCKkApMjoFYioMauVm+93bwwX7hKaNsDkwZUrAYBlYC6jWb2WghsCQJqJQJq6LlX3jWvVQMC6gYgoBJQt5S51H+Z+uXzQhuAUQiolaYNqG0YfO4bN6ubvnFUvfijJhga96sDce2J+732qOb+u9VzQVvo2AlvHKk+CKOJOV24W93kj2G0KwbFS/sPv2MukzuHnno2qllcSnfCgNm2637XPPUbr+4ddYOtCbfHFnWt19SdUY20v0X7b9S+O/32RU1uTh0bmruaVy6pa4Kadj56DsWxlpUMCW1oPPfCk+3tI2fUufNn1GG33eqHyrD93Pnz6vhdfnvr8At+Tas3ltmnV+PmMjEzl1dPqv3R9v1Pn2/26+bfXkLWc2y3u3npcxL2681bGNu/JO2L74f4PK08zEVz79+//XmHcyqfp3B7LD6f8eNJ3t+iXXq8Dbjv7POhq+ndd+189ByKY1nmUv/bV6jnhDbtY898R128eFG9/sxBsR1AiIBaaRUBNQyAdpsfCHWgFEJkPzTa7bnVTxt0dQD1ty1CrDenbpz96lhw26pYLXCByw+A1zz1jhf4bFj82mtduwu0iyDrBcauTuinFVdQ9Vhh8GvnKIXQhplLOqAW5yT0v+FrTU0QUr3A3G2348fHtzT7Bh+/EZug4r3Zd8Flsa19g/Zq7Ju7H2rcm/giVEj7a9/0+/38N33bbxUh1R6bGHy6/dnb+hx022x48ubUOyddP/9Y+v36/1EQjnfFK479+0pvO+MdizBve+4W913deTKKx6PHCoNf//x64sdsp3JOQv/+f15sP63bLtxXvuffnb2qREAFhiGgVlpJQI2DpgmRR9VD93vbIu3qZrzSWgqoiaAZkMc4cFaYZ+GF2IXF/orpQhsO+yuFYYiTw1o/6DXGXOLP9SkF1Oyc2pre8Zv9+WPKYVs8vinUvDFLb/5RwJBXIqM3bzFEtG/6i5DT3u4FF9M3vVI1nhAwagJjIzzm+DisaKx++O7XpI7V7C8VhJZh99+bu0ecdyM8BzXnyeqd4wq5PuJjS6uZU1sj33f+mEKwbYjH53CZH5gUAbXSSgJqHBjtJfhj3qV5ExB1uAwMDKjCuH31AbX4+dNkuFswIUxaJTR9XXCdOKCasZu+kekDqrcyKljsr63LBflpVQRE6c0/CAuJN/iGCTb2zdv/eVET7d+Oa1apeqQAsrw4fPXnWRFyemHGCc+N6ROHzCh4tfNxxxxJBaFlJMPdgjhvzfR1564mDFrRMYvM2Pa4PdMHVBs8Exb7i58rFQiowKQIqJXWF1AXK6htOA1XVEetoE4cUIsrqHMMqDacBmFwZSuotcFz3QE1CmRB4LCkN/8VB9RscJmcH8qlY6kIOZMH1P5q5cokw93C2gOqGTe6H3J9ksdQM6fa4Dk2oG7b74QG9g4BtdJaAqq5xO/Cp1yzzCX+4POnPQMCammloGI1c92X+MX9rSygyjV96w+ofrjSb9y9N+BiQE2EkCgciMHLjrPY54gQMIEugJn5xOFwiZBTc55sGOuCVzJsrUg0R0kqNIfHM11AzT1WxD5LBVS5pm/EY7P0H3cAgxBQK608oNpVTj9ExuFw8e36OKC61db+dsf1PeavokpfkqoJqBW/988EtijgBV+SsuEwCHF2lXMRGAcEVHdZPRUK48Dp9h/sz7NUQG3YY8mHzyEBtX3DDC9DjtG+QZ9++mQznvAmL735x2HB1IRv3m3I8PrZPl2NvS33qzsmV1sOFwVm/mfUcT1eb6y64GVuB+fJ9vPDmT1P8XkLj9f2EwKhpN3vwOAU6c9dn1vvS1LuvvLPQXwsleepZR+7qfvNjN1/7IT788T1nco52WPJn8PhAbX2W/wXX35CbAcQIqBWWklANWFz4VjvErz9cpOjg2Kwyurrj9kbz/T1aoIwOiSgus+h5i9nuW/yO/0gZkNlJw6EQwJqwwudrXDFtA3Njt5Xu/9FQI3n4+nmMGBONqQGgpoBAbX0pj2EfYMWA4P05m/3HezXm09LCFhuP117GyDiN/0uePqSc9PtUjgZwoXCJUJOozdvYc5BjenfBp/wPnTzCUn382K8ukCbEs+9H8QW/yFqxeeq/jwZhcdLG5odva/4PMXz8XRzGDCn4LFpBTUDA2rN508f/1YbUC9+Sz0mtQMIEFArrSSgRmFws/DXU7BuLsgtF842mw1qUgjEHql9LTyonnmdgArUIqBWIqAK7KoBIRVrYVe9hlx23TZu5XPpVXRMpvpv8dsVVH4PKlCHgFqJgJrAN1f3Vu/SqWTZS+J7bXF5d2eDWXc/b/p9uWXM618hnB54Xr1uLu1fVN98XGgHICKgVpo2oAIAACCFgFqJgAoAALAeBNRKBFQAAID1IKBWIqACAACsBwEVAAAAs0JABQAAwKwQUAEAADArBFQAAADMCgF1oCtPKHX5ae1X6kqhfVK3fFr9+sgTCwc/KtftlX1vq/eYc6HUe46ekmsAAAAGIqCOZILqqbfV+4S26d2k3rhvbgH1DfVegikAAFgBAupYZvXw9+qKfULb5GYYUD/xq/WsIgMAgJ1DQB2LgEpABQAAK0FAHWuKgHrdAfVT/zOm9x1Qx6S6YkD9qHrTH0cTal86GNa8eUvYPggBFQAArAgBdaxlA6r5AtQj6o3rFttMgBRDai6g1qyuCjU2HI8OqQRUAACwIgTU0U6pK04pdfmJN4S2kjYw/vS2m8LtJjSGobWVC6Ht6mlvLJ8Jw59WL0XbTSDOBts08yWxUccOAACQR0Bd0vuO/n7Er1kSLsl7+qua+VXSY7c9sugv1ATtseTHCmTu12y99xNyOwAAwLIIqKMt82uWKlY9AzWX8Rv+7031gmcbUPsrqMtY76/ZAgAAu4SAOtZSn0GtDJydgfXx51uFz7sujc+gAgCAFSGgjjXJl6RqV1GHBdT+iqntP+UqKgEVAACsCAF1rCl+zZR/ST55aT5qN7zV0PhXVRlSEHUhNcS3+AEAwNwQUMeaIqBuMgIqAABYEQLqSO2393c4oJmAzt/iBwAA0yOgDuR+zdLlu7x66phV1PZ8EFQBAMBUCKgAAACYFQIqAAAAZoWACgAAgFkhoAIAAGBWCKiVCLoAAADrQUCtREAFAABYDwJqJQIqAADAehBQKxFQAQAA1oOAWmlVAbX7e/sHPyq2d+K/2+/9zf4xzl24TKkLV4ltG+vhd9Rn/ua36jOvXFLXSO0Y566T6vT5S+rkEaEt62r11tuXqV8+L7WN1Y6pft54+wr1nFgDANh0BNRKexpQrzugftrUvHmL0DbCc6+8q3mDf7c6J7St2w1fmzBQElBXY3RAbTz/bhMmpwqp5j9WBFMA2HoE1EqrCqg1TIhdcsW0YwLDu9RbDwtte2DSgIrVWCagNqb7D9FV6pcThl0AwHwRUCvtZUB96eDyl/Rb7Rv87165WmjbGwTUDbBkQO0uyy/9kRICKgDsCgJqpakDandp3/rpbTeJddpkAdWsnpZWsp5V+15pQqO+VG68o26Ia9yldCcOmKZd93tN3enVHXrqWVsTbo8t6lrXPPWbsEbcn9f+tdeC/oua3JwWTGj2au6MVpvNfMwcymMt6/ALl9S5V0+q/dH2/U+fV+fOn1fH79K3D6njr15Sp58+ZLc3fYwz6nDU76ojZ7x2eWw3XlDXiAOqmVumPTDJyj0BFQB2BQG10tQBdeGj6k0poMZfioqM+Txq+fN7NnAFAbDZ5gW+Niz+Ru2707W7QOsF2S4wLur6/VrFFdRmrDD42TlKIdTNJRlQS3MS+t95SR1q+vkh1Q/M3XYzfv/4lmYDZRj+bIB84cnwtg6K3bYn1cngdhxq/X5+kO3366+gxvuXamJThEsCKgDsCgJqpbUHVM80K6jtZdbc5f125VBYMe204bC3UhiHOCmsCUFPG3OJP92nFFALczI1/eM3+8uG9Ebi+JZXEwaFmka4+toGT73K6tfEY7UhNlp5jfdnQnN/ddbsL5rDwgSX+auuAAAAtgEBtdLmB9TS508z4c4xIUxaJWz7dsF10oBq59X0DawgoPoroz3e/tq6XJCfVhwaze3g0nxFQDUh0189ddq+LriKIVMMsU2dRPzIgLZEQLW/CWDrfi0aACCJgFpp8wNqaQV1jgHVhdMwDK5qBbU2eK47oLrVzzYghoGytRcBVfh8a1Z5Bb9oZr+BAgCwOgTUSpsfUMufQS2vZq77Er+8v1UFVLFGsP6A6gVHExbjcFgRUCsv8Yd9rPhzsOa2FHZz+AwqAKAeAbXSNgTU4gqUDWxhwAu/JGXCYRDibCj0A+OAgNqGvVQo7AfOdv/R/jpLBlTXvxA+hwTU7nJ48tJ3Jfu5z+N6vHiFsyqg2tvSl6T8uYlhVPfztrl+Q1ZR+RY/AGAAAmqlqQOqCZ1NMO37tHpJqp0ioNo3+Pxn+ey35Dv9INYGNK8mDoQDAqrWhU4rWDF1odlp9mX27wXU3nw63hyq5+RCasivGRJQ21AYhcBRXChMX6YvBVSt9/nRXtiNakx//yMGjptPKKxxJviClEFABYBdQUCtNHVA3TN8jg9rxl+SAgAMRUCttDUBtWE+i0pIxTrYb+BPEyrtSix/ix8Ath4BtdI2BVTNhFR+bc+e6S795wiX3zdLGyinXfG0H1PRCKoAsLUIqJW2LaACAADMFQG1EgEVAABgPQiolQioAAAA60FArURABQAAWA8CaqU5zgkAAGAbEVArzXFOe+nwY8fF7btoynOxTed1qmNJjcNjcLxtfszO4fGi91Ui9fPV1AyRGm/q/aAsPuf6dopfl+LX1fbZBATUSnOc016KnwTuyZTi126bKY9vDufKv99SpH6SmtpSTap9yDw2lT7GoaRxYrV1NaYcawxp/7Xbauh+EqnWWbZdq6kZIjWe2z71/pAWn+vSfVPi123T/UhArTTHOe2l2ieYtk1PGH0sY0nj+Wpq1qE0j5r2FKndHzuWay/13Xa1x+/O8xjSeL6amnWI51G6HdPtMb/Nr01t8y3brukaSaot7p+qc/wa6WesTnyeU+e99v7Y1vuQgFppjnNKuu6g+uRjn1MfuU5o69ymDjQP5AMfltrKap9g2lyfMDfe27xQP3BQfVBoqzX22HS/saTxplTax7JzqO3vjjeWa/f7z8UH7/hcM7cH1Y1C2zLGHu8y/caSxptSbh81+49r/NtS/9KYur1E6uf47VJtvK00npaqqenrM6+b994mtu20Dz9Y/X4i3X8pfp0kron7x/zauSOgVprjnFJqXkDMm+YS4Sx+oOce+HN9UuxlQI3N6RyV5lIz17jGv117rFKd25Zrm5tVBNRljnWq8zTX863nlSLVa3Gbf1vqlxtLW6Y9bqvZf6pmrHgsZ1X/2Zo9s+hTWtC5RX3kgeb8Zd5ThpzrWv4Y7ucpxp0DAmqlOc5JVrMy2j6RPnnHLUJbnfgJkHtCzPXJsmxA9Y9L/5zi90mR6mr7Ts2fe4rUL+bq4vqh/aVtuba5mVNA9fvpn1P8PilSXW3fVUrNITe3uM2/rX+W+PWxZdt9Um28bZn9Vc9FrxAWr8xtqaqAqrXvv6X3Vv+c6599qW2SuN39nOuzSQioleY4J0nVyqh5oVnuDTN+AuSeEHN9skwZUCW1x52q26vztsxx6bacXI00lrRN2u7apO17beqA6p+Docdcqq8dL1U3dD7L0Pvy+dv9utJ2zR/H8dv82tQ2nz9OitTPkeod1x7X+7djuXa/LV1XF7y2VnVAbVQE+dQ5dz/X3Sdt29A+m4SAWmmOc+qrWxmd4jNE8RPAPVFS/Nr0k719Eezm1gVpu93qH5+9tOLViC8kZrywrhdQ7dyS7ZZrj7c7uTZfbpzaMaZW2u+QeUm1/rbcWEP79uvt40J4rJvngAuN5j7XbyjR40jo14bNfE3vMWTEATV+zNatTOla/9/45xy3L6lNm2Kc2jGm5u93zNzittJ4ubGmVrP/VE2OXyf9HMguasjPs3gBoHvfCV6Hvce920fX7r/2x8+P8D2h1y6+x8Qhu523vh0+rxfH2Xu+B4adD5/u7/51P8fb420xqdZvi8U1m4CAWmmOc+oxT+zCG10yHA4TP+BzT4B+m30Cx+Evnn/3QrXY1r5g+McYhVqvnx9k+/2EFVTh/PVqGu54Usec2h6Lx9H/lvj9V6W0nyHzkGr9bbmxdJskrpF+dqT7vfdG5QXK7nlhH0P+8yQItYZ97PUeQ2G/dg79fsF/tITHXix3rPHtmGtP1ZX6O/E4+t8Sv/+q+PuJ9+/z+/jiNv+21C+1bax4LJ/UHm/LjTFk/FSt9Dq4MCCgNuMvtkXvA/a5097Wz5HPqU8+oJ8T0fj2+dp/ffeedwMCqtlnN3f7nI7D5cD3TTOf5Plqz7Pm/1za5vO3ldo3GQG10hznFDMvAPETK1J64tSKnwC5J4TYVhMGpTft6IWi/+bfCscSAkGvpn2ximva/S3m4B+L+1n/W8P18/vGP/tS21fNzTdH6udI9Y5r92vdzzGpLd5WHqsiDNa8maXeoIKx5Dfq+DEqPwcTjz8rd9y5bfF297P+t4br5/eNf/altq+atF+3rWZOcY1/W/8s8etLhtZrro+0z3i8+La0vVSTai89NlOP+/j1vPf63gieGzagts8xPyiG40vj9OZQ85yunLeRev6nSO9dDX18jr/dl2uTSPVDx5grAmqlOc4pUPUEkoPaGPETYPgTLp5LezuYf0VANS8m0QuMYfraFz7Tp/9iEb4Q2RfEBOm86u3xttz2lKnGmUppv0PmJdX623JjlfrGUm3xG07vMVPzZuY/ngL+41Z4DDfigGr239SJhMey3l6zLbfdGdsvNtU4U5H267bVzEnXxPw2vza1zRe3l+olrk/N/lPj6+0pfo3/b1/0XOiZMqC612l/n/747c/SXIL/+NU8p/cgoDr+Oa8Vj+FIbbn6TUJArTTHOfnkVZlI8k12uPgJMPQJpAVzluYmPclXHFDTL8J9qeMa+uIwxTi6duh+U0rj1OzH1cT/5n6OSW1D643g/hdCZM2bWfK5448njN0QA2rpuWqljmnodmdsv9gU4+jaoftNcePE/8Y/p8Q1pf6lMaXxJH5NzLVLdXFbaSwtV5Pvnw6FfjsB1ZN8vWhJ59u/L/P3Ryg1liSumzsCaqU5zmmh9ALSMk88KcyNED/Ycw/+ZJsXHPTcevOvCKjxm78TvMiILy72xal7IZJfrHJSxzX0hWCKcXTt0P2mlMYZ0i79nGqPSW1D61ve80M/pqrefKI3s9QbVPJNdVFjHoveYzT1mI2NO9a8VL+h400xjq4dut+UeKzUz9LtnFRtaYxl9um4Pvpfn98W/5zjjxH38W/HbZoY2jp1QU8aY3hATc0lmkPNc7py3kbq+Z8QhGVBzfmX7geJVFfbd+4IqJXmOKdO4X9rhnmCRWFvCfETQN/O8WsXXHA42LxwCHOrCKjudvAiY/r5Lyb2hah7wbC3dT//RcT2iwNGSuq40scrW/U4Q5XGybXHbUNv+3SbRKrVcm3uDeMjzZtP7/4d8mYWPM/aGv+xZ97cvJr2dqJf5g2sJHesOal+Q8db9ThD+ePEY5Zu56Rqc2O4Nr9m6D59qRppuy8eJ9XHbY//DUivxZ441HWP+3hb9JgfE1Cl1+l2HH9+8fPXPueCbdG4ljRP6bmeJo/r889xfL5zbRKppqbfJiCgVprjnBzzhCo8cUr/oxsq96SKZZ8s9sVGnL/0opgJE2YcQ3ohDWt0f/GcuPn4EudNt0m34+0l3X4qpcaQtteK9zFEajz/33h76nauVtrmbufGabn7X/iPXFVAbXVvvFbcHvznx7Wbx1S83/gxq6UDQEzXS9tL4n7u9tDx2vnWS40hbV9Gbl8+qSYm1bltqTHi7aX6lFL90PE0qU+8Td+Wx7aP1+T7TPh41o/7+PV1soCquYWJjvC8Dl7L9bjtOIvn7JCA2qjZpya9b1m6n/vXSdX4t6U6p2aMTUVArTTHORnim2tMfrNdxrY8AZYx1QvDtp7L+LimOl+xbT1/OWOPear7YI7nfMo55cZKteW2l0j9cqbokxojOXYmeMEpv9eW7ruh961UP3SMuSKgVprjnLSqlVFxBQcAgHrtFQRCqsyuyJbej1GNgFppjnMCAGCdaj5StpP0QhDhdFIE1EpznBMAAMA2IqBWmuOcAAAAthEBtdIc5wQAALCNCKiV5jgnAACAbURArTTHOQEAAGwjAmqlOc4JqxP/Hrlt+b1y22Ls/ZHqt6n37zLz5jENLPBcmh8CaqU5zmmv6SdlidTPJ/VJkfprUm2JNI4vron7x+1Yr7HnP9Vvzvdnbm7Lzntof10vybX7/XN1NaSxgFq5x9Cyjy8en9MjoFaa45z2WukJOfYJO/ULxZjx/D5S/2XniOUse5/G5n5/uvnpf0vivrX9JNI4uW1xu1Q/xLL9gZh7TOl/S+K+tf0k0ljII6BWmuOcksyfPy39tY/2T7Ll/0RqXulJV9M+hjSWL66p6aP5de5nqW/teJvJ/U3tefy1GH2uhxoyTq7d77/XUvOpneeY45H6lLbF7WP26xvUv+p1r1LyT0jbvxYktq3C0Ofj2D9r7fbT/sXB9i9GresYU1Yzp9RjqvaxVlvnG9NHUvNHEsxflxT/cuS6Xtvb58gUjx0CaqU5ziml+kG85F+9KD3pxrbn+uX61JL6O649rkttn4VJ/0b2ul7E6qTO9xTb3bZcm8+9QQYSz7O4NnixtuEn7hu/Aeuf/XbHHzeWqs/dlrbnaiR+e1zv3475Yzhxu387bWwwS9i5gBr+mc425KzrGFOmm1PqcaS3p6Tqc7el7amawSr/A7b3AbVh3pOWf/wQUCvNcU6y9kGYf2C0T/xlX8xLT7xce/wEdvy21HaJ3xbX5dpirl2qK/XdM5MG1HlJnfMptrttuTZf/z9+Lqz4bwZ2m18Xv1i7gBr0c28e4XNXmoev1B5bdjyp3d8Wtw8db2j/lnDOl5UMqHM3ZUDd69eUaec09LFYMvV4Jeb4KxaV0gF1vaaYBwG10hznJKl6EJs3zOUfwKt6go7p5/eJ++faUqYYY20IqKO2621D6uUrEzZY2u2pF+Vgu76/mufoR5rxugDUbPvkHbeZN+RcQHVzLvH7+H2l7bFcndTmb4vbS/ss1Zf6a8PeCNvQUwxwOx5Q5/GaUjMnW1PxnxPpsVXD7+P3lbbHauvaY8s9hmsWnlpTBMMU8xpYEZJb9fdNCgG10hzn1Ff34iu/0Q5XevINeRI77ra0PcevLZH6x1yd1KdmDHe5tiW90C9WzMSa7nKOfZK7Ou9+C/cRiV9EzAugXxO/gMXzEV7gKubUifcX13QvyPmx9Db/tr8t11az3d8Wt0v1qedNez94xyKdj+7cNT/rY9f3j/7X1Op+i/MqPX9Tx7Vueh4Svz2u92/HSvWl/rWveYYNnfIbbPQ4tBaBIG6Pnq+aeUwL2+1+h4XGiuejJb0ODA+oteJ5RaGp6jVicZ+1YcrVpY8xK3u/9ul9Sdv3irv/suGze70U2tzxB/za8mPJzEE4f+394z+m3ViV91XqOVGJgFppjnPqqXkw2AfzFCsD4RNCJvVbh2X2XZp7fmz3wuw/gZtt93pPfuENy71Qd/eL96LTbTP3r3Dfle53PZbwBpF6QU/+D7xyTv3+dn/+HGw/rTsPwmNTt3d9hG1xu1TvtkviGulnJxVQFy/i7Yu3GA78Y9PHbs69rm/Ok24ztxdv3HH/eG4pfh+J1Ccm9XOGti9bX+ovPWZE7vEm3H/dm67flhs3+XwTxmkkn0+V0v2l53HmMbg0vb9wHovHvt1mz5s+1/HzejEnO29d181dOpYh7Lkvvf81/MeUmUOC30ci9YlJ/RbceSjN2dZJj92q19+KNmGc9H4X91/xeWfvl3KdjIBaaY5ziqXeQH3mATr6RSBUegLm2nXbWFOMFY/huDb/3xK/f+8FWyD/bzV6MRDfIBNvPsk3zLRRL2JVc0q8IJk5emOKL4j944vPb3w73ia1p7bnxpbqlwqo3nnxn4N6zAP36sv7uk/7GIj75+ZZsz1naB+/XuobbyuNX6ov9e89rgTmfmvG6T0mLfHxPiqgSmNlwkWl5PNRnIf8fNTH3zfsNUMUn6deGG2Fr3n2nMSvgZnzWqt0X+u23O3S9pxBfex5qnovNrXSeZEfW8nHS7ZNGCv3HGi0Y6Ve75zlHv8E1EpznFOg8GBq5d5A52HMC0NMGqM0rm73a3L1ubbwhVjSPmGl+8A84V1f8f5M3H8VL+zuhTs08EWsZk62pr8vzZtj5ZuR7if9HHNtqRppe814PnMOkwFVn6/M88s7d/372Z2H8MVcz8Hxx/K3x/y6GkP7xPWp2/G/Kbo9Frf7t2PJx6phz2fNcyO+X8XHupV77Mb9gvt3nNQxBo+jzopf482xh/eXFh5v/7yFx5AILblzPkC7r3B8f65+rb895tfVqO7jzqHwWiJJv6e093X+XI9vM7ez72UNdyzJOgJq1jbPyVf/YJIfnGOlnpS1T1bz4K4k9Y9JdbV9fX6fuH9uvDkG1Dachu1DXqg6NXOqfZMpzNlx57p0H5bqpO25MaW2VEBd3OeZF2PveHPPVWkf8VyGHGPJ0D5+vftZ2hb/nBLXlG73VLymtY//9GNSvF9zj+Oa55sdr+p1uSD1fJTHXmFANccdjR2fp8R5C+eaC6jl14Sc0n1d+/hKbc8Z1Meep/JjQw6hubbU46XUFo6Xfp9y2rFKj7XyODkE1EpznNNC3YNAfCFeUu5JWfOE9WtSP0u3JbrG8bf5NbXifrVj5l8AWuZ+6L0wRS/a4gt94s0n+4YpvxmMehGrmlNijrHCm7wz9P5L1Uvbc2NLbbkg4443de78+zz3PJTa4rno2yl+XY2hfVy93y/18xSK44mPSYENV9J5F5+Ptl4ct/TYNe36MdA+94pzK0g9psTt0ePRPR/NsfcMC4O5/XXHmLg/wse1/Jq0OG/etmp2zMIx6eOOb6f4dTWG96mYc/acyK+15lwn+iRf263ufjL3Y6Gu2Xf5sd3OcexzgIBaaY5z6tQ8sc0DbtgLUknNE7JU47enfpZul+h6R2ovyfXLj2nfEII3vOaFyP+SlLm/wheW9oXDu3/EF/pE+LO1ve1W/Abc7kufm4EvYpVzcuNnX5TMOSg/HvPnui9V3x5vn1SrSW3hm2zDno/wvrb3v18XHWtvHI/UFs8lNe/c8aQM7aPrc33GzCGnPF4i7EjE+6thn4/d49XeDrb16nOPXfumfIfeX+F1uULp+dg999zx+dumFB+3t7/uPNlt/nnrvbZJ91l8LEO4ecT3q0DPNXe7tD1nTB8tHfba85Q7J23fxWPDjTX4td0x9/GD6iO6TnxO2de33Bi+4nMlj4BaaY5zcnJveI55YFY8gWsNeTLmav026ef43xq6Nh4r3lYi1bpt5XHc/4wd4Qnqvbi3oie88EKfDKia96ZqSKHJb7MvRN0+e/NZiN8Aa+bkQmrAf4xWvnDpftL2mKtL1Uvb422lMRYv/gv9NxUtOt/Rceaer6Ytep7qMfya1O14u6+dxzDSOCVj+8XcODXj9QNQjvymHzxezflv78PF/Rvfpx7hvnTj5cJFVs3zUQue9/r5XA41ywifA/qcR+dJnHccZuLXx5b8XCqxYxXe/xy9n5rb8XafbhtKGicQvx5r5lyWHtfhuTT3+5jX9t548n6l16e0YfeNhIBaaY5zMsTQEJNDxFj6gS1tT8nV14xVW+NI7U7NWFqqrrY/pjHkfE9x32zC/SvNcS7znnIe9WMt/0aIiVS9H83n/przc2lYGJyf9j9p8X9OhiGgVprjnDTzICg9iKX/nQHAtnCrRITUvbVhAXW+4hX8DWNX9pedPwG10hznBACwTDiqvdSPlSCgwt6/U4RrAmqlOc4JAABgGxFQK81xTgAAANuIgFppjnMCAADYRgTUSnOcEwAAwDYioFaa45wAAAC2EQG10hznBAAAsI0IqJXmOCcAAIBtRECtNMc5bYdn1b5Xfqs+8ze/VXc+LLXP1/6nz6tz5y+pcy88KbZjfo5//XH1D//hmPr7r9+srrrvHvX3zc//8L171HG/Lth+s/re95qf/8Pj6nv3eTUAgJUioFaa45z2zJ2X1KHJAiUBdT2eVCebuZ48Im8//fSh7mdzTKIz6nDT5/AL+ufz6vhd3jh3nVSndc2rJ9V+u82cH+/2LPzlAyagvvWX+vZt6i0poLrtf93+IvGX/5qACgDrRkCtNMc57ZlJAyrWoyaghm0miArhuw2oYZ8urG9iQLVBdEEKqA+ol4MaAMAqEVArzXFOe4aAuoGmCqiH1PFXm3GePqlOd+FTbzujDh85s2EB1V6+LwTU9mMBBFQAWCcCaqU5zinw8DvmMrlz6Klno5rFpXQnDJhtu+53zVO/8ereUTfYmnB7bFHXek3dGdVI+1u0/0btu9NvX9Tk5tSxobmreeWSuiaoaeej51Acq6BbLbSy4U6Htq42uixu2vRl8/DSenI8ryYOmoswmBpr4oB6RP9rj0cfR3es7ccAdO0sA+rUHv+Wunjxorr48hNyOwBgFAJqpTnOyXGByw+A1zz1jhf4bFj82mtduwu0iyDrBcauTuinFVdQ9Vhh8GvnKIXQhplLOqAW5yT0v+FrTU0QUr3A3G2348fHV60Q7nRIDFYZ/duNLrwugmsbfv0ga/v5QdF+3tMPm35o7rab8d1YUwfUdp+6n64z4xJQAQATIaBWmuOcDBsW+yumC2047K8UhiFODmv9oNcYc4k/16cUULNzamt6x2/2548ph23x+KoVwl0UztoQuQhwYYC04vAZhT4nDo/9YNsIxmrn6kJsrD6gekFXj//qGXVSX97XbSsJqDepN+57Qv36iOzNW6Q+AIBNR0CtNMc5Gclwt2BCmLRKaPq64DpxQDVjN30j0wdUb2VUsNhfW5cL8sOtPqC2fcIw2fHG743d4wVLYfuogBrXRMczTUAFAOwiAmqlOc7JmGNAteE0CIMrW0GtDZ6bHFBzwbO1VwE1YOZOQAUALI+AWmmOczIqVjPXfYlf3N/KAqpc07eZAVWsEawtoEYhNNc2TUDlEj8A7CICaqU5zskxgS0KeMGXpGw4DEKcXeVcBMYBAdVdVk+Fwjhwuv0H+/MsFVAb9ljy4XNIQG1Dm76MLq4UdtYQUN2XpAqrqNsbUGfOfUnq9efVx6R2AMAoBNRKc5yTz32T3+kHMRsqO3EgHBJQG17obIUrpm1odvS+2v0vAmo8H083hwFzsiE1ENQMCKg2JKYCqglutj20CIjTBVTNhdSQXzOfgLrYRzun/rz7HxvYYAeeV6/rgHrxO+qZA0I7AGAUAmqlOc4JwN577GUCKgBMjYBaaY5zArDH3AoqvwcVACZFQK00xzkB2CtPqG+aS/sX1evPHBTaAQDLIKBWmuOcAAAAthEBtdIc5wQAALCNCKiV5jgnAACAbURArTTHOQEAAGwjAmolQiUAAMB6EFArEVABAADWg4BaiYAKAACwHgTUSgRUAACA9SCgVpo8oD7/bqV+fpnxy+eFdgAAgB1FQK00eUB1TFB9l3rrYaENAABgBxFQK60soL7/avXW25ep371ytdAGAACwewiolQioAAAA60FArURABQAAWA8CaiUCKgAAwHoQUCutLqBeq5575V1K/fzd6pzQBgAAsGsIqJVWGVCNh69Qv9O/durtK9RzUjsAAMCOIKBWWmVAPXeBYAoAAOAQUCutLqDyGVQAAAAfAbUSARUAAGA9CKiVCKgAAADrQUCtREAFAABYDwJqpZUFVPvt/V8+L7QBAADsIAJqpckD6vPvVkr/WqkGq6cAAAALBNRKkwdUAAAAiAiolQioAAAA60FArURABQAAWA8CaiUCKgAAwHoQUAEAADArBFQAAADMCgEVAAAAs0JABQAAwKwQUAe68oRSl5/WfqWuFNoBAACwHALqSCaonnpbvU9oAwAAwHgE1LH2va3ec/r36op9QhsAAABGI6CORUAFAABYCQLqWARUAACAlSCgjkVABQAAWAkC6min1BWnlLr8xBtCGwAAAMYioC7pfUd/b37t1HuOnhLbAQAAMAwBdbQ31HsJpgAAAJMjoI7FZ1ABAABWgoA6FgEVAABgJQioYxFQAQAAVoKAOhYBFQAAYCUIqCO1397/lbpSaAMAAMB4BNSBrjyhzK+VupzVUwAAgJUgoAIAAGBWCKgAAACYFQIqAAAAZoWACgAAgFnZ+oAKAACAzUJABQAAwKwQUAEAADArBFQAAADMym4E1OvPqp88/jP1i8ZP7nhUrgEAAMAs7NYKqg2qP7hVaAMAAMAs7Nwl/q/c+zP1i3u/KrYBAABg7xFQAQAAMCsEVAAAAMwKARUAAACzsnMB9apbL6hfPP5j9dr1QhsAAAD23O4FVOOr6gfm105dUF8R2wEAALBXdi6gHr7jxwRTAACAGeMzqAAAAJgVAioAAABmhYAKAACAWSGgAgAAYFZ2LKC2397/yR2PCm0AAACYg90IqNefVT8xv1aK1VMAAIC527lL/AAAAJg3AioAAABmhYAKAACAWSGgAgAAYFYIqAAAAJgVAioAAABmhYAKAACAWSGgAgAAYFYIqDvI/LlX84cLLqivCO0AAAB7iYA6wksHn1C/vu+AOia0zd3hO35MMAUAALNGQB1hcwPqo+q1z/5M/eSOR4U2AACAeSCgjkBABQAAWJ3dCKi3fFr9+sin1Uvvv0m9cV8TLo9YBz8a1UbtRx5Rb1zn2j6q3uy29/30tpvauusOqJ82t9+8xfVb9O1qGsdue8SG3HBcv8YEYT1HM39X489pKAIqAACYvx0KqFEA7AXJfohs+/UDYXYFdUhAbbZpXW20P7MfXdPtywbo0au3BFQAADB/OxVQc6FxsaLp17SBMAitjekCahR+o77Sftp+ejV4sa3a9WfVTx7/sXrteqENAABgJnYooOYvjXerlZLoowDTBdR80JwsoJpg+jP1i8+eVYeldgAAgBkhoFrZ0BnZuIDq2KD6g1uFNgAAgJkgoFpDgt/GBlQ+gwoAADYAAbXThsiaVdQ2JKbGi8OoHZeACgAAUIWAGliEyQW5nwmPXp0fPtv9+f37X7YioAIAAMh2I6DCIqACAID5I6DumK/c+zP+Fj8AAJg1AurOaVdRf6F/7RRBFQAAzBABFQAAALNCQAUAAMCsEFABAAAwK1sfUAm7AAAAm4WACgAAgFkhoAIAAGBWCKgAAACYFQLqhtn/9Hl17vwZdVhoAwAA2AYE1A1DQAUAANuOgLphCKgAAGDbEVA3DAEVAABsOwLqIIfU8VcvqdNPH1JXHTnTBMVL1nl1/K6w9vALrq118ojfvhinDZyuTgied51Up71x5Lp2vEV7PJ/6eQMAAOw1AuogfhBchEQTRl89qfb7NS88uehnQ+YipHrjdHVPqpPB7YYNk3647a+gtv1M+HTbTD8/fNbMGwAAYB4IqIPYoBeFuiA0mnAYr3DaMNiFTyHEuppc0G3EAdXc7oXMtu8itFbMGwAAYCYIqIPIodHXhr6mRlIIn2FAbVdGw48G9EOl6RPvxykEYgAAgDkioA5SG1BLq5ITB9TeCmqMgAoAADYHAXWQiqDX+/ynpD6gBp8tdTXxJf6RgRgAAGCOCKiD1AQ9W5MNjTUBtR9G29vx2PbLVdlV1GEB1e0nDscAAADrQEAdpDbouZAa6n2LvxBQ43EWvyYqDr82pAaEb/FXBtTF52hLK7MAAADTI6BCULMqCwAAsBoEVPS4FdT4C1oAAADrQEDFQvdXq/gLUwAAYO8QUAEAADArBFQAAADMCgEVAAAAs0JABQAAwKxsfUAFAADAZiGgAgAAYFYIqAAAAJgVAioAAABmZTcC6vVn1U8e/5n6ReMndzwq1wAAAGAWdmsF1QbVH9wqtAEAAGAWdu4S/1fu/Zn6xb1fFdsAAACw9wioAAAAmBUCas8T6psXL6qLF7+lHhPbAQAAsEoE1B4CKgAAwF7auYB61a0X1C8e/7F67XqhDQAAAHtu9wKq8VX1A/Nrpy6or4jtAAAA2Cs7F1AP3/FjgikAAMCM8RlUAAAAzAoBtcd9Seo76pkDUjsAAABWiYDac1A987oOqBfV688cFNoBAACwSgRUyePfIqACAADskR0LqO23939yx6NCm+NWUPk9qAAAAHthNwLq9WfVT8yvlcqvnj72cntp/+Lrz6uPCe0AAABYvZ27xA8AAIB5I6ACAABgVgioAAAAmBUCKgAAAGZllgEVAAAAu4uACgAAgFkhoAIAAGBWCKgAAACYlVkH1HMXLlPq59q71TmhHQAAANtnI1ZQTVB9+wr1nNAGAACA7bIZl/gfvkL97ufvUm89LLQBAABgqxBQAQAAMCsEVAAAAMwKARUAAACzshkB9f1Xq7fevkypC1cJbQAAANgmGxJQW8+98i7za6d+98rVYjsAAAA23bXq/w/sCgDi5tlItgAAAABJRU5ErkJggg==;" vertex="1" parent="1">
                    <mxGeometry x="147" y="-950" width="680" height="900" as="geometry"/>
                </mxCell>
                <mxCell id="3" value="" style="shape=image;verticalLabelPosition=bottom;labelBackgroundColor=default;verticalAlign=top;aspect=fixed;imageAspect=0;image=data:image/png,iVBORw0KGgoAAAANSUhEUgAAAhcAAAFfCAYAAAD9Ou7UAAAAAXNSR0IArs4c6QAAAARnQU1BAACxjwv8YQUAAAAJcEhZcwAADsMAAA7DAcdvqGQAAEIQSURBVHhe7d3f6x3Vvf9x/wWvvNALCSJeSP1axPPFSrSmlO+J2nj4oIlCy2ljE9Q02guREnOMpUVT2yAeBSuWBHI0lGCN4XDSQy7ypUKF8IUSOFROESnIuRb9B9Z31q/Za615r5k1e6+9P7P353nxINmzfsya/dl71muvmc9nX3f7//rf6rbb76rq5Nnrlfr0RnVeKAMAAJutarg4f+m6JlRo16tPnpbrAACAzbaUlQsAALBzES4AAEBVhAsAAFAV4QIAAFRFuAAAAFURLgAAQFWECwAAUBXhAgAAVEW4WBvvq30ffqkOvPSqUAYsx9a5n6m3Lz2qdgtlk/Xajf1/Ifgfzqm/PPdX9bfGXx7+iVwHwEJ2QLg4pL71+z+px97+uVC2TggX66TGpLz7raPq7Y+bfkLn9op1l2XtwsXTu9RXn16nPntNKDN+o/5IqACWjnCxNggX66RauAj7OPioOrnigLFe4eI29VkTLL46e4dQ5jxwSf3tuUvqV1IZgGoIF2uDcLFOlhIuGque7NcpXJjvNrq6S50UylqEC2Al6oeLf/qteug/msncEyb1b/ziP2flQp273nbbfnIuqPef6lv/FPdz2+0/V3vCfjTfVzqOxJ6fpH31u/OlL9QPz15Rd7pJ/odOZ7Lfd0UdCMptm6D86WvN9mvqnqF+Gve8EfSTq2f6C+q88b5Qrvf3qtpztqdeWv7hF2rPvm652X+0z7TeNvCf6DOXDmaT9F51LKh38q37onqdfsRJNe5DO3YiXxbq7O/EwbhOdtyzbfJkf5966lLQz8dH1VMHg3JzXHpbUk9aAUnHpKX7G3qeTB8H1VY6rs7+Bsbtys3zFo0rrafZVYv85RCHcAGsRN1w4cLAQ784FG0LJ3ITHP7jnLrLl/uA8Pvfqm9EdcJtbvUhqFO+IlFn5cKECzeh7vPf+Gom2WByTR83TEAIA0Y7Mc/q2b7Ddm6ij4JJd+XCttPBIWkXBocgCLRtXQBqj0NaFekcSxg+ZvvsHN+quUknmribbbMJP753od1u2gWTVPq40Z3I9WSnJ81ZHdt3d7Ib+sRv24V9uYk2mIA74UI6Vhdo0uOPxhSEgfj4w2AkH0vnOEqeJ9d3NFY3hjSI9Y47Ch+z50p8bs1NnAXfxky4AFaiYrhwIaFvEnerCZ1VAxNKZisTJlxEQcKvdnRDSRRkRDXDRRwc4kk6+GQftLN1gnZCAOlM9lKdTgCwj2cBwTFtg8DhwkVcL+5rtioT1kmPRwo8UsAZsltd+NHz6u9HZH+6X2qT41YKpE/gATEARJNd8Ak5aDf7xB9sS3UmTas/XNhxp23s5DqbRO24/eSqdcfSCSBGcjziGNPJXZjsG/FxFD5PQnBJ+y8atw8XST37vMQh7+TZ64cviTR+9fhf1d8e/41YBqCeeuEiFxxCJkSEAcGzQcG3LQsXyeWVbHioGS76JlE7YftVglRvcEjChTzZJ+HCtZH2FfUvBpWYdPml1a6CCKsi2y0zsaekySjmQkpG1H/wqTxbp9EbLty4pX7CABFNwL5NEqTMfjp9OL5uSbhIA4ITH0fh89RZgegqGrcPFwPhURu638KEiuf+qv74gFwOoK61DhctdzkmvpTirTZcdFYuUpXDRWflIlUaLgYvbWx+uOh8Ik+5YBHVy4yhJFwUjTvowx5HPGn37serHC7KnqeCcDE07hHhYtTKxY/PqcNCGYB6ql8W6b1MUfWyiCDpx1pVuCicfEvDRbovV2cWXhYIM4nhY9NqhYv6l0WGJrvhcFE2iYn9zBMuxow76sO2C8c5fGyN4nCR1kkvSxRO9gXhomjcI8IF91wA01L1hk5/mSIKD82EP3vsJvooJHTv1Zg3XOTqmP6GgsmAognYTOQDE35BuOgECfc47duOaWD1oiBctJd0elcvJrhy0bCTVDIpNpNb+LhoIpNWJVLppOkm5M7+G3af+QlWHHfC1EkCigktUb8ucPStApSEi1yQSPue53kSFYx7TLgo+RsXGuECWImq4cIIL1EkocGzk/1MutpRFC7EXzXNBQgfamZ6L98Iyj7dN1zAiISTdkm4aOv5PvR+7eSeBhcfMCJhACgKF5oLGJGw3TTDheEmvFYyGRWFCy3tRxMnd09PoHaSlEJCXLc7IfuAEUlXJdLJ1wWFuC83UUe6Iag/XMy2+T50fXEMQ89TUbjQBsY9Kly4+y76/uy3RrgAVqJ+uACAbcFf6ASmgnABYHOYey96Aob70jK+WwRYLsIFgM0y9K2oZvWCb0UFlolwAQAAqiJcAACAqggXAACgKsIFAACoqkq4+Nb9/0cRUgAAgEa4WAOHnz0ubg+V1JHM2662qYwDALA4wkVAT3ClpPaeVD9Hap8qqVfaV2pMOz/mElJ7T6qfI7UHAEwb4SIgTWal24bMO1H6dkPtc+NM5bZ7aR+rsp37BgDUtTbh4psP/1QdfnK/+qZQ1rp7v/r+sz9V371bKCsgTXCl24bMO3mG7dI++sokUp2xfdSi9zVEagcAmL41CRcPqq1mstn6tlQ2c+/jzaT0+INiWQlpQivdNqRWm3Bb7v8SX67/LZG2X7bt2CcAYDnWI1x8+1Az+RxS90plrbIA0iedYPtI7fuMbdNX35eFdYb6z5WX9KG3z2sZ/QAApm0NwsX96rtPHlfff/h+oWym6LLJAGkSK93mt88r7SfXn1Qv/X9KapcT1uuT1h3TNrVIWwDA9Ew/XBTdR1EWQIZIk1zptiE12vQ9zvWvt4ek8nRbibRdrX5y2wAA62Py4cLcRzG0ImEum8x/I6dXOtHNM/nVaNP3uKR/X0f/m5O2yUnrjmmrhftMSfUBAOtj4uFiNTdyetJElyO171OjTd/jkv6lOiXtJH1jmYduv2gfAIBpmHS4MPdRDN3IaS6bLHYjpydNbqXbhizSJv03LZfKpO1SnVy7PrX60XS7mv0BALbfhMPF6m7k9EonuXkmvkXbDI2jr39d5sv9//uk7VNSndJtfnspqT0AYNqmGy5WeCOnJ01mpduG1Gwzz5jG9NWn5phCi7YHAEzHZMNF0X0URX//osyyJk2vZpuxY/Jl+t+0Xl+7VMk+hrZ5fePoawcAmL6JhovV3sip5SY0adIbM/nN0yak20nC8vDflLTd99FHapNuS6V95NqE2/3/07q5tgCA6ZtkuJjCjZw580x6y54oc/3X2m/N8Ut9LXv8AIDVmmC4WP2NnAAAoJ7p3tAJAADWEuECAABURbgAAABVES4AAEBVhAsAAFAV4QIAAFRFuAAAAFURLgAAQFWEi0m6Tz116Wfq7Y+9o+qpg1K9DbHnqrrp9Ndq1x6hbIVuOaHUTUdfF8vmpfu84bT2ubpFKAeATUS4GOPEwQoT/V51rA0NBQGiyj5XbNSYL6ibm8m3b1J/8pkfqGu/fkg9KZRVZUJOvYBx69GvCRUAdiTCxRgVw8XJt+4TygQbHS5eV7tebz7Vn7gglM388sVD6tqL3xHLqnvi8yYQ1FhFscdWeyUEANYB4WIMwkWZwjGXfbL/jvronUPqz8/cK5Qth7mU8fpVdatQVo5wAWDnmnS42DrXd9nATtLHTtyldr91NKh3UG0FfXT7sW3C8u49DvHkn7aPXHpU7Q77OvioOtlXXjtcmPJgf+f2JmXN89HW0c+NvyyT9jlwn4c5Lr0tqRfsb9TzNDD5mkshTaiQ/UCdeSCo/8BD6s9DdW6/V535dVonE1rc5ZGbn0i2j0K4ALBzTTRc+AksDArNtnPhBOUnyXDicu3aCS993HCTfxgwts4lE6mbjDshpGiij8vNhBtNrPXChQ1VyXMUHq8PFWb/er9H1clLQUBonxdhTOl+g9DUPi+u/9HPk1Y6gR94TAgKMz6EfHQg3faY+qWv58NHeGnFbQvbzdQIBoQLADvXJMOFnTQHJicfLsLg0IgmczPJZVYyknaxTADonTTthN1p037i99vcuDu64zSy+7T9yBO768v839cJn684XJjnu7OykByPEMrme54cc2/D8M2OvTdzZgKCuUejbeNWLNJ7NgZCy8KXRibyGzAAsB0mGS66n/YlmYktEF8uSYT9B5/KQ+MmzVxosGaT8vC4I7l9ZsZsufpR23C/cbjovZzhQ1jlcFH6mxR9N3N2ViiMJEwUBZCuucOFW5FZ/J4NAFhfOyBcZFYEPD9JRysZ80yapaGhtJ4zEC46KxehMeFi6PmuHC7KVi76b+YUg4dZkQjChHmcBhDbby60aCZcDPwWS68q920AwHqa8GWRgVBQMkmXTHJinXkmzXjCzqsULkYff1hfuCxSGMKqhYuSybf3vggpXPibNoPLHUK4MO16Qgv3XADAYiZ6Q6edtOJP082EKNzQ2T9Ju0m0b+LsTJpu31Lfrm52n2ZSHRpTybgDPRO1v+yTXb0oDBfy850YEy6GnifDTr79qwMFKxdtcLDB4s8vPtYEkjRczAJK+FsoudBSZ9WBcAFg55pouNB8MPDSCbZ0kk77scJJMr0349gJ20bs2wWIVjohp+WdOm4i7wiPL1enkayMpGOP6hSHi1l53FcwpjHhQht6nhr2vouBmx5dOGhFKxXu8oZjQkjPSkXbXrxUMsPfuQCAxUw4XGDzlaxe1GfCRu5mTv5CJwAsjHCB7eV/u2IpAcNdKgkvqySXSSJuLLUCgVkB4btFAOxAhAtsPzOpL+9vQkSXRXLBoqHDQN2VBrcyo8MTIQPADkK4AAAAVREuAABAVYQLAABQFeECAABUNblwQVABAGC9ES4AAEBVhAsAAFAV4QIAAFRFuNiB7nzpC/XDD6+pe4QyoE/6XTbD3+2zzu5Qn1y9Tn119g6hbIVeu1Gpq7vUSakMmCjCxRj3/7P6+5Fn1IW7hbI1siPDxdPXmmP+Qu3ZJ5StPemL6MaSv+BPk791t+dL66ZK/PK9vPOXrstO6offvKLOv3dK7RXK6rMhh4CBdUK4GINwsb4IFwPG9rHZ4eLk2euV+vRGdV4o01YbLrTb1GefTmAVBShEuBiDcLG+CBcDCBetp3epr5qJ/LPXhDJn9eGioS+PfHq9+uRpoQyYmA0PF7vVhR89r/7rwd0uGDzvdAPCb/f7MutP9+fLIj/aUsfCesFj7diDzzT1/ln9tt32j+pPTTvdvy3zfQV17t5S/2XGaMff1tn/j22/o+y7og58+GUzuYbScPG+2heVZybitK833g/KX1V7zqbb7lL3vNFsO3tF3akfm0m+2bf5V/ehx+H3ne7T9dfuLyk3Y9HbknrB/s2+2/YJP6axThyMLhvEE6ydpM22qN5R9dTBoA+hH3FiT+t8fFBt+TI3WcblM+kkunWur7xyuEjHdulRtbstt22PnbD/+rH48aV9loxbt4nvB5k9T+l9IrHg+XTMqoV4CeIFdepiEyoyTr98IKq/9+WLcR0hjHTqeG++ENWz3OWRS7cJZdp+9coHl9Xly39Qr2xJ5cDq7IhwkU7ecQhwdcKJ20zuccAwBlYuxoQLM6bcGNz+dZ12DC4cdcY0xE3i+4JPO52VCxcYDrz0alInbuf7CuvpbbM6peHCP9ah4gt14GwQENq2NnCk+4oCRhB02jEIxyu2nZOfqMIJbvdbB4Pg4CbpZOIyE2Qwwdp+wolNmNz1BB1N9q5ONFEH27PBINN3dBxDfaR6woUJRHGYio/fhwpbR5edvHQ0CAj+eRkxbt1fW8/1nx5Lp61kaAK3BlcujpxJwoYLJkFosMHiojr+SL5OKh98NMIFpmNnhIu+Cd9M2uHkb5mgkK4U1AwXSd9RWzHc2HZmFabdNkSe7NNwEU3+LXmyT/uKlYcLO/mHfcZtzRgzY2oDhwsXcZAQQolWI1y4ySn7ad1wk10SAOJJ039yn5UbZlLufpIOdUOJNhAMMv2aCb9tE0zSEWHFxciFC9tPZ7t57nxf8eRvVybs+KLjGzPu5NjjMOMUhQt7b0PfJRFtnssiaRupj8F+uTSCNbEzwkXP5YT40kQiCQo1w0VvSKgWLuxEm36Kj8NFMmGn9fwEL07kqdJw4Sf5MAjEbXsvZ/j+Vx0uhE/kXQMTveYmue5Ergmf+Dt1xoULO2GnfTjtBFww7kguXLjgkGEn9rhtGATCcLHIuOcOFwX3W2jD4eKAOv5eUye81KEFbXIrF+nllQjhAmuCcNGZ/HsQLlYbLjorF4k1Dxf9n6B9sIj3N8/KhdwmVTdcdLeHxoSL+cY9d7iosnLhg8UZdTjY3mlz5EwcPLSeSyKGCRf532IBpmLHh4uhwBBZ03CRTrR2VWC+yyJSCJmpFy7iAJSxTZdF+ienkkm6ZAKW+5knXFQLRZHcMYw//ly4WGTc84eLGvdcyCsQcRsbQHpXKQT991wA00G48HVKVi/cpJ+b4NMgYR+nfa8yXGSCRDP5RhO3mXjjCdlO7vFkbLclk3nTNnycBpV2fyPDhS/rXb0YEy5c3c72RHv3fmbikFcThBs6ByZpO4n2T3TpBOnbSJ/m7bhyn/LdmHpXAWqFi4YJBX3hqTBcLDBuMVy4/Q4d49DfuNC6lzRCbuUiWIUwwSJ6XXXrDCv9bZHL6p3npHJgdQgXhg8YsXhyd8zqRVAvWqlI+tH7NfW3L1y0k7aeqP3kaib4ZFXATb6+XnbVwAWRVrJK0YYCR+8vurxSHC66fVlB4BkTLrR07EJw6U4CXbNJ3oon0fJJOu3HiNq5ydDTk6WZuKXJ1k/EM3Fw6ZbHdeTyuI4PMZJkTC5gRNrJvjRcaIXjLgoXDbd6MetLeC7dfRdDf7Cqfa040SrEI6fU6aBMhwgTSMLXVVqnFV9OaRXcb/HsuzZcXH73ebEcWJUNDxcAMF7J6sVicjdv5n4dtfAvdG69pj4gXGACCBcA0OEuQSwrYLhVi064ELe7sRTca2FXLvg7F9h+hAsAENlJfWnf53FE+G2RxqkjST19OWQgWHzvlT/YyyGXf6eeFcqBVSNcAACAqggXAACgKsIFAACoinABAACqmly4AAAA641wAQAAqiJcAACAqggXAACgqmmGiz1X1U2nlbqhcdPR1+U6AABgkqa9cuFCxs1PCGUAAGCSJn9Z5JYTSt1w4oJYBgAApodwAQAAqiJcAACAqggXAACgqsmHi9ue+FzdcPprtWuPUAYAACZn+uHCuKBuNr+a+rm6RSwHAABTMflwcevRrwkVAACsEe65AAAAVa1/uHjklDp98Yo6f/GMOiyVAwCAldqAlYsX1CkTLq6o0y8fEMoBAMAqbcRlkb0vXzTh4tQRuRwAAKzOxMOF/S2R/i8vcysX751Se8VyAACwStMMF8G3ovatWhx+014OOf/mC2I5AABYvclfFgEAAOuFcAEAAKoiXAAAgKoIFwAAoCrCBQAAqIpwseEOP3t8NKmfZZt3v7l2ixxHzedgGeOYt8+axwUAfQgXAX3yLSW196T6OVJ7TypP20t1Qmn52MchXVYqbRuS6udI7UO5OiVt+yza3lukn9rHVuuYAGAI4SIgnXxLtw2pNSEMPU7p8rGkfpZtnv32tVn0OGo9D2P60XXnJfWXKq0HAItam3DxzYd/qg4/uV99Uyhr3b1fff/Zn6rv3i2UFZBOvqXbhsx7Yk/bDT0uNW+7WvT+h0jtPKm+1lcets/VKZX2lTOmbirXdt4+/dhzpDYAMI81CRcPqq3m5Lf1bals5t7Hm5Pk4w+KZSWkE2zptiG1Tt5pP0P96vKxpH6Wbex+pfp+W19ZTo3ysaR+Qrk6JW0l87YDgLHWI1x8+1BzYjyk7pXKWmUBpI8/6ZeQ2veZp00q18c84xpbd17L6Mf3ldtWWj+0aLlEt/Gk8lWbyjgAbL41CBf3q+8+eVx9/+H7hbKZossmA6STb+k2v31eff34bWGdsdI+JVK7nLT+2PahedpKbfS2XF8l+1ikbcq3Sf8douuNIfXhSfUlUlsAWMT0w0XRfRRlAWSIdKIt3TZk3pN42E7/PydsIxmqU9JHKK0/tr0ntSvpa6hdWj5vn33b+/g26b/zmHdcJftcZFwAkDP5cGHuoxhakTCXTea/kdOTTrSl24bMexJP2807Hl1niNQuJ60/T/scqX5KaqeldaT/9+nro1Ruv/P0peXaDfVXsr95xwQAfSYeLlZzI6enT7SlpPZ95mmjpe2GHucM1Rs7vnnHkaPbj+lDqts3pnn6HtPG6xuD9LhErs1QXyX7mmc8ADBk0uHC3EcxdCOnuWyy2I2cnnSiLd02ZN6T+ND+S/vV9YZI7SRS3THtQ7l9D/U3ts1Qf6mx9bXSMdUay1A/uryE1BYAFjHhcLG6Gzk96URbum3IvCdx3y5sL20bMlR30b5Kt/ntpaT2mlQ2tn6OrztPG///HKn+EKndmPYAsGrTDRcrvJHTk07YpduGzDsZ6HY1xuD76SO1S+XqSdtL+9TGtq9RX5LWK2k3736XOSYtrJf7v/QYABY12XBRdB9F0d+/KJM7wUrb5zkZz3sC79v/mD6H6pb01VdHKhtTP3zc187TdSRSXa2vzMvVKWmbs0hbb94+0nbh474yAFjURMPFam/k1HInV+mEPOZEPE+bHN1H2o+0LS2bh9RXui2V9pFrE273/0/r5tp6Unmuj5K+atSRzNMmVWu/4ba0vMY4AcCbZLiYwo2cOfOchBc9cev2Q32U1JlXzX6lvnL919hvXx+6bOw+xrYZ279knjFK2/vUGCcAeBMMF6u/kRMAANQz3Rs6AQDAWiJcAACAqggXAACgKsIFAACoinABAACqIlwAAICqCBcAAKAqwgUAAKiKcAEAAKoiXBTa/dZR9fbHP2udfOs+sR6W5XW163Wlbjr6ulBW6MBj6to7P1BnHhDKNt2eq+qm05+rW6SyeZk+lbqhsdDPBcDG2RHhYutcEwguPap2C2W33X6feurSLDSEjp2Q6u9Vx5qytQoXBx9VJweORzp+66Da6rSpoHdMXbecaCax16+qW4WyUk8+84MmXDymfimULYUJM6vbnzm+Xz+knhTKNPMcVgsYF9TNhAoAGYQLHy7O7RXKJJsWLmLmuSp+LhYwYky3Hv26yqT4yxcP9U6+tQ1N9rWZ43vxO2KZZVd/bjhxQSgb6YnPKwYVAJuGcEG4iEwuXLil95ufEMpG+Y766J1D6s/P3CuULcO96syvhyb7mgqPr9bzSbgA0GO64eLEwc4SfXciSi9pHFVPHfRl/cv9s3BQOVy4SbPdVxRqbNtjJ2Zj08dkJvTm/2mffrsXH78dt24T3w8yu4yR3icSky93DIWL3jH5n1kS5HwbXXfsmMyqxeDlEDuxXmsJ91U88JD6c1P20YFke23mUkg4lli6f7PaEJRH4cD1FQcGF1pcX/ZST9zHjHx/SY1LTIQLAH2mGS6KPtUKk7yZ3MKAYZnJbRUrF8L+4337UGHr6LKTl44GAcFPrsKYOs9JEKzaeq7/9FiqrFyUjKnhAkb7/LjHnX0XjalgGd9NwOGkLd5bseqbOQfDjAtE4cqG0Ca9lGPDiHAfx5jjqxEMCBcAekwzXGRCQshMxp3AMPs0H9YtChfNRBfL7T8XLuR920nU9xVP/mZcLlBE4cIcf/dTfDzxC5O9r5Mea41wUTQmyx6LPuaeIFY0JnvTYH4J307Q8QTuPtkn9zpM7WZO6f4IO8Y0IOhjtNuywaIx6v6OCpdGzOpHjXs3AGykiV4WiSd8aQKyE3NGyYTbkifpvNyE6YJDhj2GuG04rjBc2P93+zDa41htuCgb00z788k97yVjGpoE3apFh3CfQ7oCsGz9k316GcfrCQ495ZoUVrIWCBf2N04q3LMBYKNN/obOdpJqhBO6OIlm9NetGy7ET+mtMeGiu0oQ245wMTQmLwyHmTYVVi7KA4OdzCdzM+fISzR2xaLvWEcenwkXX6tde4SyQlXu2wCwsSYfLrx00hwz2a0mXJT0UxYuSi4LrTpclI3JMn2YY+l5TorG1H/Pxdhwkb//obaByX5EuLDBwq5Y6P+LfY69WZV7LgAs2ZqEC2mSshN1PjTM2Ik7NzHWChcNMwH3rV4Uhgs/pt7wNCJc+Oeq4Biz4aJoTA33HLShwYWI7nNSNqbev3HhLosMT6rdyV5P1FK7vS9fVOcvXlHn33yhU1Zu6NdQ7Xj6L2P43woJLoVk7+MYt3LBb4sAWLZJhgs70eqJLCBOQm6Cisghwn6anplNdn7S7Ao/VaftZ5LJ1k2ukXayLw0Xmjyu2ZjGhIuGm+RnfckhIR8utP4xtT+3pL3f3gkYJWNy9wfk/hLk7H6EgLCakdbLTsRHzthwcfGiOv6IUF7KrSZkx5SWG241oy2Tbu5stkurNen9J7ngUuFmToNwAaDH2lwWwc5V6y90ljmgjr+nw8UZdVgsX2f8hU4Aq0G4wBpwk+IqJjO3cnH65QNy+Rqzv+lR6TkcWFECsLMRLrAmbMBY3mT2gjplLodcUaeOSOVrzoSByuHMrF7owELIABAjXAAAgKoIFwAAoCrCBQAAqGpy4YKgAgDAeiNcAACAqggXAACgKsIFAACoinBx+6tqz9kv1Q8/9L5Qe/ZJ9QAAQAnCRejpa4uHi0dOqdOr/ENM5i9KDn8PxuE37R+I8pb6FygLx1SLObb3Tqm9Qtl2We2Y3J8sX+jL1gCgHsJFaCPDhfvLk8lEp7/9c2ljJFwQLgDsaISL0AaGC7tiseIv4SJcEC4A7Gg7Ilzc80Z4T8WXat/Tcr1FwoVeCQgvO8TSyd1/86YXT8Q2EKSXLvx3X9i+fB1RO6nZNmWXQGbfrWEl4cCEJr0tGXswoZWNKeyvp9wEFH2s8bhmx5KON7Y9Xzw2ckzmGIM6YThon5/4teNfZ6av9DlMdAPufvXKB5fV5ct/UK9spWUAUM+Ghwt3s+Yb78+27buiDuQCxkpWLoQJX/ikbyfq2Tb7WFiB6FslGByL4+qFY/KTWNs2mMjabW5y7PTfN6ZMuTm+MGC4vsN6dkzdfjttJ2BoTPZYwp+nsPrgn3O/Tfg5WaUrF4QLAKux2eHChIVr6p5ku1nJCAOHt4JwYSaVzqRjJ4d40nAThq7bN1n3lQ2MxZMnwmTCEvsSgpLWGy6kY22Y/oM2Uh+Z41k8XOxWF370vPr7Edmf7pfa9Osfk33e5FCWBEizTdftCxB9ZQCwehsdLu586QtzGUR09oq6M22zgnBhJp2mXNSZHGbL7N1Pq87C4SIz2TeiIFQtXMyOSdL2v9JwUV/vmNxxSMcvPW9+FUlcuTIIFwCmZQeEi+7KRdaqwkXpRBhOQrmJo2AizwYTY3vCRf+YGjsgXOReIynTV1M//5wSLgBMyw64LDIiLKzqskj2E2jIfcLXE0Zfn70TuZ+Y+vcnT4TJhFUtXBROhCsNF9tzWWQwYDXs68U+D/k+CRcApmVn3NBZunpREC7sZN13Ig9CQV/5wGRo9zMLBeEkE9V1E252onLl6f50f+0kbSbyuI/O/saEi6ExCfvrGBEuss/NNhoaky3PBEav8zzmX1vp60Xmb+i8rN55TioHgDo2PFxo6Z/3tma/LfK+2peUtTo3fbpPiJkTfMtP6K30pO8miYifiGb7iCcev12YsNxk3eoEl2DcTi4QzOokYxYn9ky40IbGlJandUaEC60NfU5vcFmRoTH5gBHxryv//OSet87rr/szlp6nZ9+14eLyu893ygCglh0QLgC0tl5THxAuACwZ4QLYQezKBX/nAsByES6AHeB7r/zBXg65/Dv1rFAOADURLgAAQFWECwAAUBXhAgAAVEW4AAAAVU0uXAAAgPVGuAAAAFURLgAAQFWECwAAUNU0w8Weq+qm00rd0Ljp6OtyHQAAMEnTXrlwIePmJ4QyAAAwSZO/LHLLCaVuOHFBLAMAANNDuAAAAFURLgAAQFWECwAAUNXkw8VtT3yubjj9tdq1RygDAACTM/1wYVxQN5tfTf1c3SKWAwCAqZh8uLj16NeECgAA1gj3XAAAgKrWP1w8ckqdvnhFnb94Rh2WygEAwEptwMrFC+qUCRdX1OmXDwjlAABglTbissjely+acHHqiFwOAABWZ+Lhwv6WSP+Xl7mVi/dOqb1iOQAAWKVphovgW1H7Vi0Ov2kvh5x/8wWxHAAArN7kL4sAAID1QrgAAABVES4AAEBVhAsAAFAV4QIAAFRFuFgjh589Lm4vkWu7jD5LLGM82H61fn5pPzX6neJri9c7NhXhIqDf6KWk9p5UP0dqnzO2fijXdpE+tXnbL2s8O4F+juaV6y993CesmxoqL5X2k+t37P7mGZ9uU0pq70n1c6T2wDohXASkN3XptiGLnjAWaZ9r67eX9K3rzCPXl7Rd6ytDv0Weu3l+VpJaP7+0n/Cx/r8X1gmFdcaQ+lqm7dgnsAprEy6++fBP1eEn96tvCmWtu/er7z/7U/Xdu4WyAtIbvXTbkDFtdN155fob2pZr6w2VS3L7lfSVh+2Rt8hzlWs7ts++flJSPS8tL23nldYLzdNmrPA4cqR2wLpZk3DxoNpq3nRb35bKZu59vHlzPv6gWFZCemOXbhuyyEmjVlv//1x/Y7f3GdOX39ZXtjG+fag5pvkDcJ+xz1Xu+S5R2iask7YJH/ttklx9Ly3rq5szT5satmu/wLKtR7gwJ+RD6l6prFUWQProN3opqX2fedp4UtuS/vxYPb8trRcK6y6D1Hff2JY5lm0xoXCh9bXp+7nkhHVz/5cep8bUH+prXrrfeS2jH2CdrEG4uF9998nj6vsP3y+UzRRdNhkgvZlLt/nt85L603JlfW0kYX2/T0nYJiXVz5Haa1JZX5u+vtbSisJF6fNW+rzP01/u/9LjlFSut+WkdYfqp6T2krTumLapRdoCUzf9cFF0H0VZABkivdlLtw2Zt02u3Zj+5tl3qbF9S/XDbWl5p377erA/c11uCJfDTOD05VoaPtsVsaG+kvL09VgwJnPJrm2fWDAUe7qvvsd9wrq5diX95fpJ2w715cuH6o21aH9jjyNHalf7WIHtNPlwYU7KQyffSp8GS9/w85wExrbx9cN/h4Ttvdz2Wsb2H443lNaR/m+Yidy2acOk2xaFy+Y1EYdNe9ksCg7mdSP3Nbu8ZtulfUevt2BMbTvXd+cyXaXXqkTvr2SbxNdL60uP+/oMy3L/lx6ndHnaPidsN2Rs/VTafp7950j1gXU18XCxmhs5PekNnyO17zOmTVg3166kP10nldvupX2k0jolbUJS/b4+O/WlINEoCaGdOmIAiMOEfLktWSnrBBJNCCXaisNF33avr3yobSqsn/u/9Diky0rr9/WjlfZTahn9LdoHMEWTDhd2WXvgRk7xxD4f6U1eum3IvCeQXLvS/saMv6TPtI5+LAnrhKSyUfUzP+/uayW9lOF0wkX/RN97OcMH2jUNF+GxSOVaWNZXz8vVT9tKfeltfntJ/b7tntSPJKyTI9UrbZvK7Xfe/oCpmXC4SD4dZtS4kdMrfbPPcwKY96SRazdvf9oifaZ1xo5Dqt/XR6esL1y0rwMfLOJgKq9cFISLodfXxMPFkLRd+Fj/P33s/y/J1U3bjenHP84J66XS8qH6faS2pdv89lJSe2CdTDdcmBP20Em4LICUkt7UpduGzHvCyLUb25+u79ss0mdap6RNSKrf10enLBMuTAhoL43JE/s84WL+1bPNCRe5bamSfnKPU6X1a/UzZMz+x+xj0fbAVE02XMSTRYY5UQ+c+Ast6+ThzXvCGDOulK7jpdvDx0PbPV8e1htqk9L1JVJdrVMmTOQ2AIQTtlu5CF4/5vWk9zUyXPiQ0Lt6MSZcuLq1AnGo73nsE7ZL+/CP++rktqdtUmHdVFqeq9/Xjy8L6/TVzynZx9A2Ly0LH/e1A9bNRMOFPTGnn05TRQGkUO6NLb35x5wE5mkT0u3GkNpL23LSul5alrbLCdv4dkPb/GOprp+cddmMEDDTes3rpHMJrXgVwQWMSNBuTLjQzH6DvoYuuxTSfUnbh0jt/LbSPsN6Utu0n1y/Ulv/OCesF9ZPH5cI2/h26bZU2keuTbjd/z+tm2sLrJtJhov5l6LnM+YNPc+bf5ETxjJONrk+x25fpuw+K/7cN03tn1Npf1K9RcYypr/a+w7V6kdb9JiAdTPBcLH6GzmxRggXADB5072hE5AQLgBg8ggXAACgKsIFAACoinABAACqIlwAAICqCBcAAKAqwgUAAKiKcAEAAKoiXAAAgKqmHS5OHFRvf/wz9falR9VuqXwjvK52va7UTUdfF8oKHXhMXXvnB+rMA0IZdoDvqI/eOaT+/My9Qhmsn6s9//En9VjrnLprrjqNPVfVTac/V7dIZfMyfSp1Q2OhcwEwEYSL2g4+qk42Yz52QigT3HKiOaG8flXdKpSVevKZHzTh4jH1S6EMITsJf3RAKltjDzyk/ryJx7Uk3/jFf+aDgzNUx7xvqwWMC+pmQgU2DJdFahsRLm49+nWVE9QvXzykrv36IfWkUIaAmYQ3cIWHlatRaoQLv+J4w4kLQtlIT3xeMagA00C4qK00XLhl0JufEMpGYUm81Kau8JjjIlwWqxMuGrXew4QLbKBphgt/OcQ7tzdT56Daun2vOhbUPfnWfUnd+9RTl4K+NOEyy9a5uE4aDna/ddS1k/dnyoPtMT3OuD+zajF4OcQGh2st4dPpCpfEzQrJi99p95kd0+33qjO/9uUzswBky83jqC/hOJLyNBzIYwr7SZ/DhG4b9FdNZ9xa8FyZ1QZ9LMlzJY4nPYbMc2D69HXyr5VcP9Flo6G+VuKQ+tbv/6Qe+sUhN9nL90Lc9Xaz7fe/Vd8ItvWFg2rholHjsibhApto4isXLhhkw4WeuI+qpw7abXaCnz3WTGjovWdD2Iew+hCGh3a7GUO8v7KVi4IlVXdyDydb8ZP3ypbEXSB48bFmgprtr3NJxk9g4STptqUT/kdNX+HxpH3Z442PLa5TOKag7tLCRMCOu/9nZ1cbHlMf+ZCltws/S6kvXa8T1H6t+4ufl/BYu/24Op2f3Q+an0t/X6tjw4UJFG//3G1zN122j7c3XFQJBoQLbKA1DxdDE3tPe69dAYm3m1AStJOCixgkisKFvYErv5wafIJstwmTQSOdtJbHf3qWJj+//8xElE6a7SfoeNxRKHATXbivdgxt/z1jSp4n+Tldgk6QstLAYx439aLLWekxZ/qKiM9l8nPI9ZP+XMzjeJzzhItjDz6j/n7kedn+fxTbyFy4CIKEloaJbQ0XFS6NmNWPGvduABOy4eGi0a5wNIQVjN7LGUF9W68bQjpKwsXQCcmf5FPCCV7+lL4MdnKOJsNGFC4yk1gnALnj65s0bZvk+Bvx/tOwoWUmw3TiXpLOsRrdMdlwEddL2xb9bMXnMv5ZmX6lfpJwYfe//Oeo3GaHC/sbJxXu2QAmaPPDRVJmg8MsJJSGhqrhYmDlojwwyBP+UiQTkWfG6idNUyedWLsBQJ6AQ4WflsUxFYSgJYqeD68TAOQxxj/3sudAPK4o5OX7SUNH+etuVdYlXHytdu0RygpVuW8DmJidEy68tI7Uj6BuuOi/52JsuOhbAahleBJrCOHCtosn0uHjqzWxzqxq4jT7icbtjiUMQeIY02Muew7E44p+Drl+0oBTtr8SO+qyCPdcAKKdFy467dw+BoJDcbjwv00ijTnQ+zcuOp90c7qfgPVkI7Xb+/JFdf7iFXX+zRc6ZSW6k6bdd7QtGbf9ZJzctFg4idng0L9EPzyxzohBRFDleUom9vSGUztGecUl/NlJz8GTzzwWPHb9966ASP24n1303HVfS9uvLFykQcA+buqsIFzw2yKAbJLhwk7kesJPBaGgKFzEvzba6aPlA0YsDCnl4aLhxjHrS2jnrtXm/iqfnRD0RBUQPnmn9bKTw5EzdtK8eFEdf0Qo7+Umo4S0Lzu5Oma8yaSZWVmQRH15bSgpm1hnXKhp+8oEl4WeJy1+rsz4ksBjfmbpGMXA0X0O4uNNnltDDm/9/TQy+99eZeGired/VVXX/8m5OBz802/VQ748oX/VtbhOqMLNnAbhAhto4isXm63WX+gsc0Adf09PmmfUYbG8x4hAsP4WeJ6wg/AXOoE+hItt5U5QqzixuE/kp18+IJf3meSn2iVZ5HnCjmF/06PS+3ZgFRNYR4SLbWcDxvJOLC+oU2aZ/4o6dUQqHyYu42+cxZ8n7BAmDFT+QGBWL3RgIWRgMxAuAABAVYQLAABQFeECAABURbgAAABVTS5cEFQAAFhvhAsAAFAV4QIAAFRFuAAAAFURLnYK810sP1NvX3pU7ZbKMeOfK28qz9nTu9RXn16vPnlaKOvl/6S5N+/3pkyRO7Y5v2huLubncKM6L5UBMAgXE3bPG1+qH569ou4UykZby3DR8624WucL4qzwC+dGK/rK/O1wm/rs0+vUV2fvEMpGMH/enHCxqPOXrlOKgAFkES4mrGq4WEtl4SIMAvbba6Vvvi1j2k8ugN2hPrnaTGaXbhPKRiJcVFLxZwJsIMLFhBEuxocL/zX7J9+6L9hWbutcs7+JhYuTZ6+v9ymZcFGPuTxynfrsNaEM2OE2O1zsu6IOfPiF2rPvVbXnbDNRf+i88X5SNylvHHjp1ajOnS994Sb699W+nnp2n0FfaTh4+lqz/Zq6J9tPvD3V2d+Q9P4BaaI2dQ6qLTcx+7rdCdpN9kEdcSIe2me7v6Q/Xy9zucNrw0RPuIi3NUqeh8ZwuIifo+4qiT0m89xF+xRWU4rGZD8h918OGXFPxarChdlPOKbkK+xNud42+8I4Tfw22kdOqdNBnThI2GPX7fa+fHFW571Tam/Yh5aOqVPHjkV/cV3UV8/X75vLI1d3qZNCmfa9V/6gLl++rD54Zb9YDmyqHRAukknZbQsn6Xve0AEkaGcCwJdqX3DjnAkXrq92u6kXtE0fNzqrD67vsJ7tOxlDo+7KRc8qQDvJzSZA6fJCyad6204HB79N2G8wqbYBRgwKPWPWhDZmjNH+C8aUTvKJtn+3vzB02b7DMbi+TdvZPtPnruh50gY/HdsJMZqUzSSaCRB9ZbXoMCAEgGgyN+PQE/dsLHZCT8bm6qXHN/vm2iBYtft0gSUYQ7dv3y4MDkHQacfq6uVWRl67sXdViXCBnWpHhIv00/7wpG1XD8J2YgBw/duwYVc/OisLpk5/AIn7mVltuEg+WXcm7oGJ3uhbNQgmUjeZx/WkyxkD+3Rj9CHASlcICsfk9AUouSwdo3uc1IvDxIgxDUxeZtLsfAKffZoP6xpHVhAuBHZyDyZyaRxuhWIWHLohoUue/A+/GQYEIYBphfuL+0pwaQQQ7YhwkU7aNijoSxNxPb8y4XXDRdCmo/9yRna1Q1uLcNFwocCQJmBxsveC/qX9icrChTTGdEWkOx6tO4Z8uLBjicOPZYJD22ZgzNqIMQ3db2EmPj0hSqRJeUXhQh7XyHDRmfwlBeHC9CMdcxrCMiGkD+ECEO3ccOEnbR8sovswcisXw+Gis3KRWudwkZTZyTD4pN3XJrTMcNGIAkLpmJxVhouiMQ2sXPR+qpYcWX64sMEi3sdcKxdrEy7m+dsjwGbbkeHCTNo+TEiT/Vzhwt0U2rlZNLEJ4cLr1JEubQhWES7aNoVjcvLhIleWjrEgXIwZ08An486kPWTp4UKe7Be5LNI/2ReEi5GXRUaFi4HwB+xUOy5c2JAQTO6dOrPLG+PCRcMEh4HVixHhojPWDPtJsXuCjS0hXAjtujc4CorDhZvQhXsjDGmMpu94W9GYnL5w4fsOQ4HtOzyWknAxZkxDf0/BTojFqxdHhsKF62+BAJKupthgofscGy5mbaPVi6bt7HFJuPDvkXB/rl30vI0PF6W/LXL53efFcmBT7YhwEd77IAUEO4nP6ux7untzZlG40FzAiISrDyPChWZWL4K+usHFnST1yVsIF34S6womxKJwYT9tZ/sIiPsMJ9sR4aKdrIO+2jG5MYZlc4/J6Q0XWmefafApCxda6ZjsfRd9S+8+EITCiVQqdzqvmf7XU5lkf3oCN2FifLiY1Q36i8ZVFi60WciR+tFGhouS+y2e+50NF5d/p56VyoENtSMviwDrZcV/DdJN5qMuD+w4pT+T/eqVDwgX2HkIF8A6cJ+Slx8w/MrFiPs4dqDi7xZxKxf8nQvsNIQLYF0s+TcT2ssGyeUEJMzPYSBYbL2mPjCXQy6rd54TyoENt9nhAgAArBzhAgAAVEW4AAAAVU0uXAAAgPVGuAAAAFURLgAAQFWECwAAUNU0w8Weq+qm00rd0Ljp6OtyHQAAMEnTXrlwIePmJ4QyAAAwSZO/LHLLCaVuOHFBLAMAANNDuAAAAFURLgAAQFWECwAAUNXkw8VtT3yubjj9tdq1RygDAACTM/1wYVxQN5tfTf1c3SKWAwCAqZh8uLj16NeECgAA1gj3XAAAgKrWP1w8ckqdvnhFnb94Rh2WygEAwEptwMrFC+qUCRdX1OmXDwjlAABglTbissjely+acHHqiFwOAABWZ+Lhwv6WSP+Xl7mVi/dOqb1iOQAAWKVphovgW1H7Vi0Ov2kvh5x/8wWxHAAArN7kL4sAAID1QrgAAABVES4AAEBVhAsAAFBVlXABAADgES4AAEBVhAsAAFAV4QIAAFRVNVz86vG/qr89p11SvxLKrTvUJ1evU5+9JpUBAIB1t5SVCxMyfnwu/y2lr92o1KcEDAAANtFyLov8wzn1l+f+n3r/H4Qy5+TZ65uAcaM6L5QBAID1tW3hwl8eUZduE8oAAMC62sZw0TCXR65XnzwtlGnP/U5dvnxZXX73ebkcAABMzvaGi9tvU5/13XtBuAAAYO0sJ1zc/hP1/o//qv72+G+EshCXRgAA2DRLChfW4Yf/n/nV1L88/BOxnHABAMDmWVK4+I36Y2+o8Gy4+OrsHUIZAABYR9O+5wIAAKyd7Q0Xpb8t8sFr6ntSOQAAmJxtDBcF91tsvaY+0OHi8h/UK1tCOQAAmJxtCxelf6Hz2XcJFwAArJOlhAv7WyI9X15W+t0ifuWCv3MBAMDaqBouZt+K2rdqYS+H9AeL59U75nLIZfXBK/uFcgAAMFXLuSwCAAB2LMIFAACoinABAACqIlwAAICqCBcAAKAqwgUAAKiKcAEAAKoiXAAAgKo2K1zsu6IOfPil2pf7IjSUO/ioOvnxz9SxE0JZbU/vUl/1fYHdNtn78kV1/uIZdVgo2y53vvSF+uGH19Q9QhnQZ/dbR9XbzXvaO/nWfWK9zfAT9f6P/6r+8vBPou3H//U59T//95j6739tjv1Hj6n/bv7/P//+mDoe1JmisnHbY/7jA+G2rvOXrlNfnb1DLKuJcAHZysKF/dr9VbzYxyJcTMM9b3ypfnj2irpTKNsZ9qpjQSh4++Oj6qmDUr1Str9VhIutc814Lz2qdgtly2T+WvSPz3Xfu//ypJmkP/kX/fhB9UkuXOgJvN1u69k226R03A9cMn8luzdgmA9zyz/nEi4gW0m4KPhm3G1EuJiGHR0u3PswDgL3qacuHVRbYb1RNjtc9H63lTRJ/9uDcj0/eZuVgufUv/8oqbNKpeNuDH63l2a+32u5q8WEC8hWEC5Kvxl3uxAupmEnhwt7KWORICHZ4HBhvpG755N7NEnfp/7933vChd8+uXDRM27DXh752+O/Ecpm9OURdXWXOimU1VAxXLyq9pz9Uh146VV129PXmhNgc0IwvlB79iV1o/LGG+9H5eZkorcN9eP2GfXViMNFWiftp964bbk+8Sf7TOsN0p9M3Jv/xMH+5dCovHFub1Ru3tx621A/bp9RX400XJj+esrNydCcTOKl3O6JzK5ayEtzB9Tx966o82++0Ck7/Gaz3U/4j5xSpy9eVMcfcfUvOkI7GxT669j+gjpGGi6SfZn9h+WVucAcve464eJ9tS8ql94rjbSv6HXpXrPSe9FN7CbYNP+/xwQct73tMxlTuq80HLTvlXjs5n1o6qTHFJvVG8EF5vD1G03c5j2SvDcyIXvh94F7P3bDezzx23BRdhlkaEwzA+EifZ5y4SA598z6i485le43vRckPYfZ/eifU3KOSus1zKd26XJIKTeJZ4WXIjp1n1TvBn29+2/NNh0AonpJSDFlup1bjXDMvRVBX6OZyyN9XyDacJdH8l8i6r9A9HfqWbG8X/VwYd/8sxNN+qmj+8mre1IzbXQ/bTtXJzpBuZNPeDLsrFzYOtGJyJzUwpNvvXGH4aPdZ2dMJcI30ezkl34K6H6qce2CN117wmnbuTrRCcOdDMI3a+ek2u1bOvGGJ4p2u3TSHnhh2zCQTtwvqFPNhH765QP2cRAGTh1xdY6ciR83okBi2H7Ov3dK7fXbhHbdlYtk/5ppt6SA4V5P4Wun8zp0r6/wNW7rJK8511f6XpjVEV7PjU64aPowdcx+v1AHzuqxJO+zznus+36avVdm9Wz/3WDUaTsPYTLvvH+k1+nS3gdCP22d8D0dTNRp3VbZmGZ6woXwHKTnHc0fX3zMBzshSGrbKZeON2zjfnZaO2bx+Mo+sZdog0Hzf3MzZXp/g17NiFYO3GpCUM/0YcLCLHTYbUEICYKHXZWYbWsfz+U36o9D9170fsDTphYukpNAfDK0J6HORGtONPmJXUtPquljI5nITZ3OScmOc3aSrTduf8KM6wkBZ5AUANKToX0Tdk4eyckpf2KY1emcZLX0zds56Vmm/+CkZvsaOkE3zDW/vksiBRO5CxdhIMgFkLhOI+pLXilJw4V5HAYSw7aNxlmFPNmnr3t54k3b2tdg2ldM3l83XLjJPwo14Ws8fX85Loy0wUEIIOn711s8XMgTeed1L0ysy3wfdOtkAkfDTsJesv/CMc3kwoXdf2e7GXcwTnccYjhJSOeflnRe0NKfg3mc1pOOoWRCLaNDgF89EMOFwP5GR0+Q0NxvevQHiaHLHiW2/9JI/XDRdwJzJw/7iSU1O9GUhAtTJ91XcnIydTr7cdq29cYtnjDnkj/JtNwbc3bCCc3emNKbOz2piich8UQY7iMQ9N85YWeU3G9hVhyCydw8DgNASbg4okNEemljVs+2Df8/k4YLuwKSIV1mWYgcaOP3QWYi9/X8eygzacdKw4Xbd9RnGC5ckMlox7DScCEH8c5rtSBc1H0fJBOk2Vey/1T7vp/VKx3TTC5c2O1iP432+ZOep4zecJEJRZ2fV+n+hu63KGYndx8uwlWM0GxlIpSEi04osZc/2sseJlx07+eQ246xQ8NF/0mucrgYPCnVG/d2hIv0hJmqGy6GQ0NpveGVi4YJD351QQgA2xEuOisXy7Le4UIaU2Stw0W990H4/jRt+t7zLRcCXN3i91yrP1wMrkhMNVwsvHLhVgw6gWHGrzDYYBGHAnHlIhMu4pWLTLiosHKR/p2PlAkXS/ptvdWGi8ITT3G4SE845oQ1OzmlbWT1xr3ScFF4IigOF+kJwLyhx7/Bi090gzcTacElBx0S0om92mWRpI2T3qvRvQdjmeTXnHndD70POq/pktdvrXBR8n5qbEO4SN8r5nUfvlal13ga4mu/D0z/uj/9ni+ZQDV7PO35oXjy9XLnjpLzTqPwg43WGy5y/aTHU3x8te650AHAT/jxKoYlX7YoChfpb56I4ULa51g17rlYzIrDhT9BdU8gIelk0gkKSZDwj+O+7Umv/8RUb9yjwoWb9OSbAcve5PYE1v8mLwkX9s2bnkCbdlHfbkwDJ8zik2rh37jw9zkcbyb6dPIvChftb3eEocDWCS9lpEFidglEaFe0euHqij/fMmKQMK/x7vsgDA72tRq/DsXXb9M2fJy+79r9jQoXzWNhTB3SeyUTLqTjkbQ/M+ESVRok7OPk9ZxOdu7xct8Hvr+GMAlvnetOqrbvcHvZmGZ6Ppi4937Rh5Zkwpdu6OyONSSNOwlOWnG4aF4DJX/jYUgUAJKVBicNDjZYNNt6w4X7jZAwlAjhwrRL79UYq+pvi/xBvbIllfdbebjQ/IkuErQrChftNtfe1Lcnufjk5AJGJDxR1Rv3qHBxRH9yzk0+7k039AmiYd+8+g0aCNoVhYt2m2tv6ts3+eykqgUnwkBYR+o7x953MfSHXPwkLawYFIULaxYWrE5QSX7F1JSbn1G6Xz+ekPQzDPqb+34M99p0rzUzWZvXWPw+8JPy7HWZlHtu0m91XvPxe0Xvz7zmx4YLLd2XFr6nR4QLbRasrG5wGXq+k9eufo+YSavnfWDKlv8+6IT7iLQvqd/hMc0CVSrpL/hw0RKCT/xc5QNJul95BSlfPiZc+Psuhi4H9DLhwk/ucrhog4KnQ4QJCkm4COs0OqsRpk1Sr3MpZaxa91vsV698oMPFZfXBK/uF8n4VwwUw1rT/QufCTDiRggymYFQAWCYh5GB+VVYvKhAvi6Qy91wsoupf6Hzud4QLrCm3NLd5AUO6HIMpmUS4GHH/Akq5T+7bHDC2JVxU/W4Rv3Kx7X/nApiTebFP71tR52Vv/GyCxcp+swTz2M5wEV5SIFgsQ9lvSyzT6sOFPeah35bRl0OGgsWz79rLIZc/eE19TygvQbgAAABVES4AAEBVhAsAAFAV4QIAAFR1nbQRAABgXoQLAABQFeECAABUdJf6/103bD6La9QtAAAAAElFTkSuQmCC;" vertex="1" parent="1">
                    <mxGeometry x="292" width="535" height="351" as="geometry"/>
                </mxCell>
                <mxCell id="4" value="&lt;div style=&quot;text-align: left;&quot;&gt;&lt;span style=&quot;font-size: 24px;&quot;&gt;&amp;nbsp; &amp;nbsp; 渲染器的作用是将虚拟dom渲染成为特定平台的真实元素，我们用renderer来表达渲染器。&lt;/span&gt;&lt;/div&gt;&lt;div style=&quot;text-align: left;&quot;&gt;&lt;span style=&quot;font-size: 24px;&quot;&gt;&amp;nbsp; &amp;nbsp; 渲染器会执行挂载和打补丁操作，遇到新的元素，渲染器会将它挂载到容器内；对于新旧vnode都存在的情况，渲染器会执行打补丁操作，即对比新旧vnode，只更新变化的内容。&lt;/span&gt;&lt;/div&gt;" style="text;strokeColor=none;align=center;fillColor=none;html=1;verticalAlign=middle;whiteSpace=wrap;rounded=0;fontSize=14;fontColor=#FF3333;labelBackgroundColor=#FFFF00;" vertex="1" parent="1">
                    <mxGeometry x="910" y="-400" width="540" height="180" as="geometry"/>
                </mxCell>
            </root>
        </mxGraphModel>
    </diagram>
</mxfile>